M48
; DRILL file {KiCad (5.99.0-9393-ga28cb98626)} date Friday, March 12, 2021 at 07:06:12 PM
; FORMAT={-:-/ absolute / inch / decimal}
; #@! TF.CreationDate,2021-03-12T19:06:12-08:00
; #@! TF.GenerationSoftware,Kicad,Pcbnew,(5.99.0-9393-ga28cb98626)
FMAT,2
INCH
T1C0.0157
T2C0.0315
T3C0.0394
T4C0.0469
T5C0.0551
T6C0.1260
%
G90
G05
T1
X5.3854Y-2.9006
X5.4254Y-3.1006
X5.5154Y-3.4306
X5.6054Y-3.0006
X5.6754Y-3.1806
X5.9194Y-3.2546
X5.9754Y-3.1206
X6.0054Y-2.9006
X6.0054Y-2.9506
X6.0054Y-3.0006
X6.0054Y-3.0506
X6.0154Y-2.8006
X6.0154Y-3.1406
X6.0654Y-2.6606
X6.0954Y-3.8606
X6.1586Y-2.7203
X6.1767Y-3.1406
X6.2143Y-2.9006
X6.2154Y-2.3406
X6.2154Y-3.4906
X6.2254Y-3.6906
X6.2354Y-2.7806
X6.2754Y-2.7506
X6.2865Y-2.7051
X6.3054Y-3.7506
X6.3554Y-3.6906
X6.3554Y-3.7906
X6.3583Y-3.4877
X6.3662Y-2.3164
X6.3754Y-2.7506
X6.3854Y-3.1506
X6.3909Y-3.1102
X6.506Y-3.25
X6.5554Y-2.9006
X6.5654Y-3.8906
X6.6354Y-3.0606
T2
X5.64Y-2.63
X5.64Y-2.7087
T3
X5.5654Y-3.7906
X5.6654Y-3.7906
X5.7654Y-3.7906
X5.8654Y-3.7906
X5.9654Y-3.7906
X6.85Y-2.2
X6.85Y-2.3
X6.85Y-2.4
X6.85Y-2.5
X6.85Y-2.6
X6.85Y-2.7
X6.85Y-2.8
X6.85Y-2.9
X6.85Y-3.2
X6.85Y-3.3
X6.85Y-3.4
X6.85Y-3.5
X6.85Y-3.6
X6.85Y-3.7
X6.85Y-3.8
X6.85Y-3.9
X6.95Y-2.2
X6.95Y-2.3
X6.95Y-2.4
X6.95Y-2.5
X6.95Y-2.6
X6.95Y-2.7
X6.95Y-2.8
X6.95Y-2.9
X6.95Y-3.2
X6.95Y-3.3
X6.95Y-3.4
X6.95Y-3.5
X6.95Y-3.6
X6.95Y-3.7
X6.95Y-3.8
X6.95Y-3.9
X7.05Y-2.2
X7.05Y-2.3
X7.05Y-2.4
X7.05Y-2.5
X7.05Y-2.6
X7.05Y-2.7
X7.05Y-2.8
X7.05Y-2.9
X7.05Y-3.2
X7.05Y-3.3
X7.05Y-3.4
X7.05Y-3.5
X7.05Y-3.6
X7.05Y-3.7
X7.05Y-3.8
X7.05Y-3.9
X7.3354Y-2.4774
X7.3354Y-2.6743
X7.3354Y-3.4274
X7.3354Y-3.6243
T4
X5.24Y-2.48
X5.24Y-2.58
X5.24Y-2.68
X5.24Y-2.78
T5
X7.3569Y-2.95
X7.3569Y-3.15
T6
X5.25Y-2.25
X5.25Y-3.85
X7.45Y-2.25
X7.45Y-3.85
T0
M30
