%TF.GenerationSoftware,KiCad,Pcbnew,(5.99.0-9393-ga28cb98626)*%
%TF.CreationDate,2021-03-12T19:06:23-08:00*%
%TF.ProjectId,SimpleServoCtrl,53696d70-6c65-4536-9572-766f4374726c,n/c*%
%TF.SameCoordinates,Original*%
%TF.FileFunction,Soldermask,Bot*%
%TF.FilePolarity,Negative*%
%FSLAX46Y46*%
G04 Gerber Fmt 4.6, Leading zero omitted, Abs format (unit mm)*
G04 Created by KiCad (PCBNEW (5.99.0-9393-ga28cb98626)) date 2021-03-12 19:06:23*
%MOMM*%
%LPD*%
G01*
G04 APERTURE LIST*
G04 Aperture macros list*
%AMRoundRect*
0 Rectangle with rounded corners*
0 $1 Rounding radius*
0 $2 $3 $4 $5 $6 $7 $8 $9 X,Y pos of 4 corners*
0 Add a 4 corners polygon primitive as box body*
4,1,4,$2,$3,$4,$5,$6,$7,$8,$9,$2,$3,0*
0 Add four circle primitives for the rounded corners*
1,1,$1+$1,$2,$3*
1,1,$1+$1,$4,$5*
1,1,$1+$1,$6,$7*
1,1,$1+$1,$8,$9*
0 Add four rect primitives between the rounded corners*
20,1,$1+$1,$2,$3,$4,$5,0*
20,1,$1+$1,$4,$5,$6,$7,0*
20,1,$1+$1,$6,$7,$8,$9,0*
20,1,$1+$1,$8,$9,$2,$3,0*%
G04 Aperture macros list end*
%ADD10C,3.200000*%
%ADD11O,3.600000X2.080000*%
%ADD12RoundRect,0.249999X-1.550001X0.790001X-1.550001X-0.790001X1.550001X-0.790001X1.550001X0.790001X0*%
%ADD13O,1.700000X1.700000*%
%ADD14R,1.700000X1.700000*%
%ADD15O,2.190000X1.740000*%
%ADD16RoundRect,0.250000X-0.845000X0.620000X-0.845000X-0.620000X0.845000X-0.620000X0.845000X0.620000X0*%
%ADD17C,2.000000*%
%ADD18R,2.000000X2.000000*%
%ADD19C,1.600000*%
%ADD20R,1.600000X1.600000*%
G04 APERTURE END LIST*
D10*
%TO.C,H4*%
X189230000Y-57150000D03*
%TD*%
%TO.C,H3*%
X189230000Y-97790000D03*
%TD*%
%TO.C,H2*%
X133350000Y-97790000D03*
%TD*%
%TO.C,H1*%
X133350000Y-57150000D03*
%TD*%
D11*
%TO.C,P1*%
X186866500Y-80010000D03*
D12*
X186866500Y-74930000D03*
%TD*%
D13*
%TO.C,J8*%
X151521000Y-96282000D03*
X148981000Y-96282000D03*
X146441000Y-96282000D03*
X143901000Y-96282000D03*
D14*
X141361000Y-96282000D03*
%TD*%
D13*
%TO.C,J7*%
X179070000Y-99060000D03*
X179070000Y-96520000D03*
X179070000Y-93980000D03*
X179070000Y-91440000D03*
X179070000Y-88900000D03*
X179070000Y-86360000D03*
X179070000Y-83820000D03*
D14*
X179070000Y-81280000D03*
%TD*%
D13*
%TO.C,J6*%
X179070000Y-73660000D03*
X179070000Y-71120000D03*
X179070000Y-68580000D03*
X179070000Y-66040000D03*
X179070000Y-63500000D03*
X179070000Y-60960000D03*
X179070000Y-58420000D03*
D14*
X179070000Y-55880000D03*
%TD*%
D13*
%TO.C,J5*%
X176530000Y-99060000D03*
X176530000Y-96520000D03*
X176530000Y-93980000D03*
X176530000Y-91440000D03*
X176530000Y-88900000D03*
X176530000Y-86360000D03*
X176530000Y-83820000D03*
D14*
X176530000Y-81280000D03*
%TD*%
D13*
%TO.C,J4*%
X176530000Y-73660000D03*
X176530000Y-71120000D03*
X176530000Y-68580000D03*
X176530000Y-66040000D03*
X176530000Y-63500000D03*
X176530000Y-60960000D03*
X176530000Y-58420000D03*
D14*
X176530000Y-55880000D03*
%TD*%
D13*
%TO.C,J3*%
X173990000Y-99060000D03*
X173990000Y-96520000D03*
X173990000Y-93980000D03*
X173990000Y-91440000D03*
X173990000Y-88900000D03*
X173990000Y-86360000D03*
X173990000Y-83820000D03*
D14*
X173990000Y-81280000D03*
%TD*%
D13*
%TO.C,J2*%
X173990000Y-73660000D03*
X173990000Y-71120000D03*
X173990000Y-68580000D03*
X173990000Y-66040000D03*
X173990000Y-63500000D03*
X173990000Y-60960000D03*
X173990000Y-58420000D03*
D14*
X173990000Y-55880000D03*
%TD*%
D15*
%TO.C,J1*%
X133096000Y-70612000D03*
X133096000Y-68072000D03*
X133096000Y-65532000D03*
D16*
X133096000Y-62992000D03*
%TD*%
D17*
%TO.C,C7*%
X186319000Y-67926323D03*
D18*
X186319000Y-62926323D03*
%TD*%
D17*
%TO.C,C6*%
X186319000Y-92056323D03*
D18*
X186319000Y-87056323D03*
%TD*%
D19*
%TO.C,C1*%
X143256000Y-68802000D03*
D20*
X143256000Y-66802000D03*
%TD*%
M02*
