%TF.GenerationSoftware,KiCad,Pcbnew,(5.99.0-9393-ga28cb98626)*%
%TF.CreationDate,2021-03-12T19:06:23-08:00*%
%TF.ProjectId,SimpleServoCtrl,53696d70-6c65-4536-9572-766f4374726c,n/c*%
%TF.SameCoordinates,Original*%
%TF.FileFunction,Copper,L2,Bot*%
%TF.FilePolarity,Positive*%
%FSLAX46Y46*%
G04 Gerber Fmt 4.6, Leading zero omitted, Abs format (unit mm)*
G04 Created by KiCad (PCBNEW (5.99.0-9393-ga28cb98626)) date 2021-03-12 19:06:23*
%MOMM*%
%LPD*%
G01*
G04 APERTURE LIST*
G04 Aperture macros list*
%AMRoundRect*
0 Rectangle with rounded corners*
0 $1 Rounding radius*
0 $2 $3 $4 $5 $6 $7 $8 $9 X,Y pos of 4 corners*
0 Add a 4 corners polygon primitive as box body*
4,1,4,$2,$3,$4,$5,$6,$7,$8,$9,$2,$3,0*
0 Add four circle primitives for the rounded corners*
1,1,$1+$1,$2,$3*
1,1,$1+$1,$4,$5*
1,1,$1+$1,$6,$7*
1,1,$1+$1,$8,$9*
0 Add four rect primitives between the rounded corners*
20,1,$1+$1,$2,$3,$4,$5,0*
20,1,$1+$1,$4,$5,$6,$7,0*
20,1,$1+$1,$6,$7,$8,$9,0*
20,1,$1+$1,$8,$9,$2,$3,0*%
G04 Aperture macros list end*
%TA.AperFunction,ComponentPad*%
%ADD10O,3.600000X2.080000*%
%TD*%
%TA.AperFunction,ComponentPad*%
%ADD11RoundRect,0.249999X-1.550001X0.790001X-1.550001X-0.790001X1.550001X-0.790001X1.550001X0.790001X0*%
%TD*%
%TA.AperFunction,ComponentPad*%
%ADD12O,1.700000X1.700000*%
%TD*%
%TA.AperFunction,ComponentPad*%
%ADD13R,1.700000X1.700000*%
%TD*%
%TA.AperFunction,ComponentPad*%
%ADD14O,2.190000X1.740000*%
%TD*%
%TA.AperFunction,ComponentPad*%
%ADD15RoundRect,0.250000X-0.845000X0.620000X-0.845000X-0.620000X0.845000X-0.620000X0.845000X0.620000X0*%
%TD*%
%TA.AperFunction,ComponentPad*%
%ADD16C,2.000000*%
%TD*%
%TA.AperFunction,ComponentPad*%
%ADD17R,2.000000X2.000000*%
%TD*%
%TA.AperFunction,ComponentPad*%
%ADD18C,1.600000*%
%TD*%
%TA.AperFunction,ComponentPad*%
%ADD19R,1.600000X1.600000*%
%TD*%
%TA.AperFunction,ViaPad*%
%ADD20C,0.800000*%
%TD*%
%TA.AperFunction,Conductor*%
%ADD21C,2.032000*%
%TD*%
%TA.AperFunction,Conductor*%
%ADD22C,1.016000*%
%TD*%
%TA.AperFunction,Conductor*%
%ADD23C,1.270000*%
%TD*%
%TA.AperFunction,Conductor*%
%ADD24C,0.381000*%
%TD*%
%TA.AperFunction,Conductor*%
%ADD25C,0.635000*%
%TD*%
G04 APERTURE END LIST*
D10*
%TO.P,P1,2,Pin_2*%
%TO.N,GND*%
X186866500Y-80010000D03*
D11*
%TO.P,P1,1,Pin_1*%
%TO.N,+6V*%
X186866500Y-74930000D03*
%TD*%
D12*
%TO.P,J8,5,Pin_5*%
%TO.N,PGC*%
X151521000Y-96282000D03*
%TO.P,J8,4,Pin_4*%
%TO.N,PGD*%
X148981000Y-96282000D03*
%TO.P,J8,3,Pin_3*%
%TO.N,GND*%
X146441000Y-96282000D03*
%TO.P,J8,2,Pin_2*%
%TO.N,+5V*%
X143901000Y-96282000D03*
D13*
%TO.P,J8,1,Pin_1*%
%TO.N,VPP*%
X141361000Y-96282000D03*
%TD*%
D12*
%TO.P,J7,8,Pin_8*%
%TO.N,GND*%
X179070000Y-99060000D03*
%TO.P,J7,7,Pin_7*%
X179070000Y-96520000D03*
%TO.P,J7,6,Pin_6*%
X179070000Y-93980000D03*
%TO.P,J7,5,Pin_5*%
X179070000Y-91440000D03*
%TO.P,J7,4,Pin_4*%
X179070000Y-88900000D03*
%TO.P,J7,3,Pin_3*%
X179070000Y-86360000D03*
%TO.P,J7,2,Pin_2*%
X179070000Y-83820000D03*
D13*
%TO.P,J7,1,Pin_1*%
X179070000Y-81280000D03*
%TD*%
D12*
%TO.P,J6,8,Pin_8*%
%TO.N,GND*%
X179070000Y-73660000D03*
%TO.P,J6,7,Pin_7*%
X179070000Y-71120000D03*
%TO.P,J6,6,Pin_6*%
X179070000Y-68580000D03*
%TO.P,J6,5,Pin_5*%
X179070000Y-66040000D03*
%TO.P,J6,4,Pin_4*%
X179070000Y-63500000D03*
%TO.P,J6,3,Pin_3*%
X179070000Y-60960000D03*
%TO.P,J6,2,Pin_2*%
X179070000Y-58420000D03*
D13*
%TO.P,J6,1,Pin_1*%
X179070000Y-55880000D03*
%TD*%
D12*
%TO.P,J5,8,Pin_8*%
%TO.N,+6V*%
X176530000Y-99060000D03*
%TO.P,J5,7,Pin_7*%
X176530000Y-96520000D03*
%TO.P,J5,6,Pin_6*%
X176530000Y-93980000D03*
%TO.P,J5,5,Pin_5*%
X176530000Y-91440000D03*
%TO.P,J5,4,Pin_4*%
X176530000Y-88900000D03*
%TO.P,J5,3,Pin_3*%
X176530000Y-86360000D03*
%TO.P,J5,2,Pin_2*%
X176530000Y-83820000D03*
D13*
%TO.P,J5,1,Pin_1*%
X176530000Y-81280000D03*
%TD*%
D12*
%TO.P,J4,8,Pin_8*%
%TO.N,+6V*%
X176530000Y-73660000D03*
%TO.P,J4,7,Pin_7*%
X176530000Y-71120000D03*
%TO.P,J4,6,Pin_6*%
X176530000Y-68580000D03*
%TO.P,J4,5,Pin_5*%
X176530000Y-66040000D03*
%TO.P,J4,4,Pin_4*%
X176530000Y-63500000D03*
%TO.P,J4,3,Pin_3*%
X176530000Y-60960000D03*
%TO.P,J4,2,Pin_2*%
X176530000Y-58420000D03*
D13*
%TO.P,J4,1,Pin_1*%
X176530000Y-55880000D03*
%TD*%
D12*
%TO.P,J3,8,Pin_8*%
%TO.N,Net-(J3-Pad8)*%
X173990000Y-99060000D03*
%TO.P,J3,7,Pin_7*%
%TO.N,Net-(J3-Pad7)*%
X173990000Y-96520000D03*
%TO.P,J3,6,Pin_6*%
%TO.N,Net-(J3-Pad6)*%
X173990000Y-93980000D03*
%TO.P,J3,5,Pin_5*%
%TO.N,Net-(J3-Pad5)*%
X173990000Y-91440000D03*
%TO.P,J3,4,Pin_4*%
%TO.N,Net-(J3-Pad4)*%
X173990000Y-88900000D03*
%TO.P,J3,3,Pin_3*%
%TO.N,Net-(J3-Pad3)*%
X173990000Y-86360000D03*
%TO.P,J3,2,Pin_2*%
%TO.N,Net-(J3-Pad2)*%
X173990000Y-83820000D03*
D13*
%TO.P,J3,1,Pin_1*%
%TO.N,Net-(J3-Pad1)*%
X173990000Y-81280000D03*
%TD*%
D12*
%TO.P,J2,8,Pin_8*%
%TO.N,Net-(J2-Pad8)*%
X173990000Y-73660000D03*
%TO.P,J2,7,Pin_7*%
%TO.N,Net-(J2-Pad7)*%
X173990000Y-71120000D03*
%TO.P,J2,6,Pin_6*%
%TO.N,Net-(J2-Pad6)*%
X173990000Y-68580000D03*
%TO.P,J2,5,Pin_5*%
%TO.N,Net-(J2-Pad5)*%
X173990000Y-66040000D03*
%TO.P,J2,4,Pin_4*%
%TO.N,Net-(J2-Pad4)*%
X173990000Y-63500000D03*
%TO.P,J2,3,Pin_3*%
%TO.N,Net-(J2-Pad3)*%
X173990000Y-60960000D03*
%TO.P,J2,2,Pin_2*%
%TO.N,Net-(J2-Pad2)*%
X173990000Y-58420000D03*
D13*
%TO.P,J2,1,Pin_1*%
%TO.N,Net-(J2-Pad1)*%
X173990000Y-55880000D03*
%TD*%
D14*
%TO.P,J1,4,P4*%
%TO.N,RX*%
X133096000Y-70612000D03*
%TO.P,J1,3,P3*%
%TO.N,TX*%
X133096000Y-68072000D03*
%TO.P,J1,2,P2*%
%TO.N,GND*%
X133096000Y-65532000D03*
D15*
%TO.P,J1,1,P1*%
%TO.N,+12V*%
X133096000Y-62992000D03*
%TD*%
D16*
%TO.P,C7,2*%
%TO.N,GND*%
X186319000Y-67926323D03*
D17*
%TO.P,C7,1*%
%TO.N,+6V*%
X186319000Y-62926323D03*
%TD*%
D16*
%TO.P,C6,2*%
%TO.N,GND*%
X186319000Y-92056323D03*
D17*
%TO.P,C6,1*%
%TO.N,+6V*%
X186319000Y-87056323D03*
%TD*%
D18*
%TO.P,C1,2*%
%TO.N,GND*%
X143256000Y-68802000D03*
D19*
%TO.P,C1,1*%
%TO.N,Net-(C1-Pad1)*%
X143256000Y-66802000D03*
%TD*%
D20*
%TO.N,GND*%
X140091000Y-87138000D03*
%TO.N,TX*%
X151775000Y-79264000D03*
%TO.N,RX*%
X152537000Y-77486000D03*
%TO.N,+5V*%
X150352000Y-82667000D03*
X165253000Y-82550000D03*
%TO.N,GND*%
X157871000Y-88662000D03*
X161501000Y-88588000D03*
X161427000Y-93742000D03*
X158125000Y-93742000D03*
%TO.N,Net-(U1-Pad2)*%
X158379000Y-70628000D03*
X152791000Y-71136000D03*
%TO.N,/CCP1*%
X152791000Y-79772000D03*
X156887045Y-79772000D03*
%TO.N,GND*%
X152537000Y-74946000D03*
X168539000Y-77740000D03*
X154061000Y-67580000D03*
%TO.N,VPP*%
X152537000Y-73676000D03*
X136789000Y-73676000D03*
%TO.N,SW3*%
X162328565Y-78998739D03*
X137805000Y-78756000D03*
%TO.N,SW2*%
X162189000Y-80026000D03*
X144155000Y-80788000D03*
%TO.N,SW1*%
X142377000Y-76216000D03*
X152537000Y-76216000D03*
%TO.N,PGD*%
X160157000Y-95266000D03*
%TO.N,PGC*%
X161427000Y-96282000D03*
%TO.N,Net-(R16-Pad1)*%
X154823000Y-98060000D03*
X166761000Y-98822000D03*
%TO.N,Net-(U1-Pad1)*%
X159677510Y-68709054D03*
X156427208Y-69096474D03*
%TO.N,Net-(U1-Pad18)*%
X159395000Y-69866000D03*
X161935000Y-69866000D03*
X157871000Y-59452000D03*
X161702276Y-58837370D03*
%TO.N,Net-(R8-Pad1)*%
X166507000Y-73676000D03*
X157842490Y-73676000D03*
%TD*%
D21*
%TO.N,+6V*%
X186319000Y-62926323D02*
X189285323Y-62926323D01*
X190637000Y-64278000D02*
X190637000Y-72152000D01*
X189285323Y-62926323D02*
X190637000Y-64278000D01*
X190637000Y-72152000D02*
X187859000Y-74930000D01*
X187859000Y-74930000D02*
X186866500Y-74930000D01*
D22*
%TO.N,GND*%
X179070000Y-75591000D02*
X179070000Y-73660000D01*
X154061000Y-67580000D02*
X155077000Y-66564000D01*
X170317000Y-71644000D02*
X170317000Y-74946000D01*
X155077000Y-66564000D02*
X165237000Y-66564000D01*
X165237000Y-66564000D02*
X170317000Y-71644000D01*
X170317000Y-74946000D02*
X171841000Y-76470000D01*
X171841000Y-76470000D02*
X178191000Y-76470000D01*
X178191000Y-76470000D02*
X179070000Y-75591000D01*
D23*
X140091000Y-87138000D02*
X160051000Y-87138000D01*
X160051000Y-87138000D02*
X161501000Y-88588000D01*
D24*
%TO.N,TX*%
X151775000Y-79264000D02*
X139329000Y-79264000D01*
X130947000Y-70120000D02*
X132995000Y-68072000D01*
X132995000Y-68072000D02*
X133096000Y-68072000D01*
X139329000Y-79264000D02*
X138313000Y-80280000D01*
X136789000Y-80280000D02*
X130947000Y-74438000D01*
X138313000Y-80280000D02*
X136789000Y-80280000D01*
X130947000Y-74438000D02*
X130947000Y-70120000D01*
%TO.N,RX*%
X152537000Y-77486000D02*
X136789000Y-77486000D01*
X133096000Y-73793000D02*
X133096000Y-70612000D01*
X136789000Y-77486000D02*
X133096000Y-73793000D01*
D22*
%TO.N,+5V*%
X165136000Y-82667000D02*
X150352000Y-82667000D01*
X165253000Y-82550000D02*
X165136000Y-82667000D01*
D25*
%TO.N,GND*%
X157871000Y-88662000D02*
X161427000Y-88662000D01*
X161427000Y-88662000D02*
X161501000Y-88588000D01*
X161427000Y-93742000D02*
X158125000Y-93742000D01*
D24*
%TO.N,Net-(U1-Pad2)*%
X158379000Y-70628000D02*
X153299000Y-70628000D01*
%TO.N,Net-(U1-Pad1)*%
X159677510Y-68709054D02*
X156814628Y-68709054D01*
X156814628Y-68709054D02*
X156427208Y-69096474D01*
%TO.N,Net-(U1-Pad2)*%
X153299000Y-70628000D02*
X152791000Y-71136000D01*
%TO.N,/CCP1*%
X156887045Y-79772000D02*
X152791000Y-79772000D01*
%TO.N,SW3*%
X137805000Y-78756000D02*
X138091755Y-78469245D01*
%TO.N,SW2*%
X162189000Y-80026000D02*
X161427000Y-80788000D01*
%TO.N,SW3*%
X162177739Y-78998739D02*
X162328565Y-78998739D01*
X161935000Y-78756000D02*
X162177739Y-78998739D01*
%TO.N,Net-(R8-Pad1)*%
X166507000Y-73676000D02*
X157842490Y-73676000D01*
%TO.N,SW3*%
X161648245Y-78469245D02*
X161935000Y-78756000D01*
%TO.N,SW2*%
X161427000Y-80788000D02*
X144155000Y-80788000D01*
%TO.N,SW3*%
X138091755Y-78469245D02*
X161648245Y-78469245D01*
D25*
%TO.N,GND*%
X152537000Y-74946000D02*
X162443000Y-74946000D01*
X162443000Y-74946000D02*
X165237000Y-77740000D01*
X165237000Y-77740000D02*
X168539000Y-77740000D01*
D23*
X143256000Y-68802000D02*
X152839000Y-68802000D01*
X152839000Y-68802000D02*
X154061000Y-67580000D01*
D24*
%TO.N,VPP*%
X152537000Y-73676000D02*
X136789000Y-73676000D01*
%TO.N,SW1*%
X152537000Y-76216000D02*
X142377000Y-76216000D01*
%TO.N,PGD*%
X150221511Y-95041489D02*
X159932489Y-95041489D01*
X148981000Y-96282000D02*
X150221511Y-95041489D01*
X159932489Y-95041489D02*
X160157000Y-95266000D01*
%TO.N,PGC*%
X151521000Y-96282000D02*
X161427000Y-96282000D01*
%TO.N,Net-(R16-Pad1)*%
X155585000Y-98822000D02*
X154823000Y-98060000D01*
X166761000Y-98822000D02*
X155585000Y-98822000D01*
%TO.N,Net-(U1-Pad18)*%
X159395000Y-69866000D02*
X161935000Y-69866000D01*
X158485630Y-58837370D02*
X157871000Y-59452000D01*
X161702276Y-58837370D02*
X158485630Y-58837370D01*
%TD*%
%TA.AperFunction,Conductor*%
%TO.N,GND*%
G36*
X183271000Y-88408000D02*
G01*
X184901706Y-88408000D01*
X184969827Y-88428002D01*
X184984218Y-88438775D01*
X184996332Y-88449272D01*
X185041381Y-88488307D01*
X185174330Y-88549023D01*
X185183245Y-88550305D01*
X185183246Y-88550305D01*
X185314552Y-88569184D01*
X185314559Y-88569185D01*
X185319000Y-88569823D01*
X187319000Y-88569823D01*
X187392079Y-88564596D01*
X187470165Y-88541668D01*
X187523670Y-88525958D01*
X187523672Y-88525957D01*
X187532316Y-88523419D01*
X187655271Y-88444400D01*
X187660368Y-88438518D01*
X187724383Y-88409283D01*
X187742316Y-88408000D01*
X188733000Y-88408000D01*
X188801121Y-88428002D01*
X188847614Y-88481658D01*
X188859000Y-88534000D01*
X188859000Y-93666401D01*
X188838998Y-93734522D01*
X188792295Y-93777576D01*
X185570269Y-95495990D01*
X185076795Y-95759176D01*
X185017501Y-95774000D01*
X181239000Y-95774000D01*
X181239000Y-100220000D01*
X181218998Y-100288121D01*
X181165342Y-100334614D01*
X181113000Y-100346000D01*
X179999346Y-100346000D01*
X179931225Y-100325998D01*
X179884732Y-100272342D01*
X179874628Y-100202068D01*
X179904122Y-100137488D01*
X179926088Y-100117485D01*
X179949041Y-100101082D01*
X179957149Y-100094182D01*
X180111893Y-99938082D01*
X180118706Y-99929933D01*
X180244940Y-99749988D01*
X180250295Y-99740787D01*
X180344399Y-99542156D01*
X180348123Y-99532197D01*
X180405968Y-99325718D01*
X180404430Y-99317351D01*
X180392137Y-99314000D01*
X178942000Y-99314000D01*
X178873879Y-99293998D01*
X178827386Y-99240342D01*
X178816000Y-99188000D01*
X178816000Y-96787548D01*
X179324000Y-96787548D01*
X179324000Y-98787885D01*
X179328475Y-98803124D01*
X179329865Y-98804329D01*
X179337548Y-98806000D01*
X180389079Y-98806000D01*
X180402610Y-98802027D01*
X180403876Y-98793218D01*
X180356954Y-98612433D01*
X180353419Y-98602395D01*
X180263147Y-98401998D01*
X180257967Y-98392692D01*
X180135218Y-98210366D01*
X180128557Y-98202080D01*
X179976830Y-98043030D01*
X179968873Y-98035990D01*
X179792524Y-97904783D01*
X179779523Y-97896721D01*
X179732170Y-97843823D01*
X179720933Y-97773721D01*
X179749380Y-97708673D01*
X179772666Y-97687122D01*
X179949041Y-97561083D01*
X179957149Y-97554182D01*
X180111893Y-97398082D01*
X180118706Y-97389933D01*
X180244940Y-97209988D01*
X180250295Y-97200787D01*
X180344399Y-97002156D01*
X180348123Y-96992197D01*
X180405968Y-96785718D01*
X180404430Y-96777351D01*
X180392137Y-96774000D01*
X179342115Y-96774000D01*
X179326876Y-96778475D01*
X179325671Y-96779865D01*
X179324000Y-96787548D01*
X178816000Y-96787548D01*
X178816000Y-94247548D01*
X179324000Y-94247548D01*
X179324000Y-96247885D01*
X179328475Y-96263124D01*
X179329865Y-96264329D01*
X179337548Y-96266000D01*
X180389079Y-96266000D01*
X180402610Y-96262027D01*
X180403876Y-96253218D01*
X180356954Y-96072433D01*
X180353419Y-96062395D01*
X180263147Y-95861998D01*
X180257967Y-95852692D01*
X180135218Y-95670366D01*
X180128557Y-95662080D01*
X179976830Y-95503030D01*
X179968873Y-95495990D01*
X179792524Y-95364783D01*
X179779523Y-95356721D01*
X179732170Y-95303823D01*
X179720933Y-95233721D01*
X179749380Y-95168673D01*
X179772666Y-95147122D01*
X179949041Y-95021083D01*
X179957149Y-95014182D01*
X180111893Y-94858082D01*
X180118706Y-94849933D01*
X180244940Y-94669988D01*
X180250295Y-94660787D01*
X180344399Y-94462156D01*
X180348123Y-94452197D01*
X180405968Y-94245718D01*
X180404430Y-94237351D01*
X180392137Y-94234000D01*
X179342115Y-94234000D01*
X179326876Y-94238475D01*
X179325671Y-94239865D01*
X179324000Y-94247548D01*
X178816000Y-94247548D01*
X178816000Y-91707548D01*
X179324000Y-91707548D01*
X179324000Y-93707885D01*
X179328475Y-93723124D01*
X179329865Y-93724329D01*
X179337548Y-93726000D01*
X180389079Y-93726000D01*
X180402610Y-93722027D01*
X180403876Y-93713218D01*
X180356954Y-93532433D01*
X180353419Y-93522395D01*
X180263147Y-93321998D01*
X180257967Y-93312692D01*
X180240132Y-93286200D01*
X185453739Y-93286200D01*
X185462846Y-93298057D01*
X185540157Y-93353000D01*
X185548815Y-93358161D01*
X185757488Y-93460841D01*
X185766872Y-93464556D01*
X185989257Y-93532546D01*
X185999127Y-93534716D01*
X186229520Y-93566276D01*
X186239611Y-93566840D01*
X186472091Y-93561159D01*
X186482124Y-93560104D01*
X186710716Y-93517324D01*
X186720455Y-93514678D01*
X186939263Y-93435902D01*
X186948456Y-93431732D01*
X187151848Y-93318990D01*
X187160264Y-93313399D01*
X187177704Y-93299676D01*
X187186173Y-93287774D01*
X187179676Y-93276209D01*
X186331812Y-92428345D01*
X186317868Y-92420731D01*
X186316035Y-92420862D01*
X186309420Y-92425113D01*
X185460243Y-93274290D01*
X185453739Y-93286200D01*
X180240132Y-93286200D01*
X180135218Y-93130366D01*
X180128557Y-93122080D01*
X179976830Y-92963030D01*
X179968873Y-92955990D01*
X179792524Y-92824783D01*
X179779523Y-92816721D01*
X179732170Y-92763823D01*
X179720933Y-92693721D01*
X179749380Y-92628673D01*
X179772666Y-92607122D01*
X179949041Y-92481083D01*
X179957149Y-92474182D01*
X180111893Y-92318082D01*
X180118706Y-92309933D01*
X180226130Y-92156802D01*
X184809739Y-92156802D01*
X184810443Y-92166873D01*
X184845218Y-92396813D01*
X184847522Y-92406637D01*
X184918613Y-92628058D01*
X184922461Y-92637394D01*
X185028040Y-92844606D01*
X185033325Y-92853197D01*
X185077392Y-92913406D01*
X185088404Y-92921836D01*
X185101146Y-92914967D01*
X185946978Y-92069135D01*
X185953356Y-92057455D01*
X186683408Y-92057455D01*
X186683539Y-92059288D01*
X186687790Y-92065903D01*
X187537567Y-92915680D01*
X187549947Y-92922440D01*
X187558680Y-92915902D01*
X187642069Y-92789436D01*
X187646926Y-92780601D01*
X187742259Y-92568477D01*
X187745642Y-92558976D01*
X187805836Y-92334330D01*
X187807655Y-92324418D01*
X187831378Y-92090863D01*
X187831698Y-92085139D01*
X187831970Y-92059180D01*
X187831771Y-92053475D01*
X187812943Y-91819465D01*
X187811331Y-91809512D01*
X187755856Y-91583660D01*
X187752673Y-91574090D01*
X187661803Y-91360013D01*
X187657130Y-91351076D01*
X187561036Y-91198478D01*
X187550465Y-91189147D01*
X187541303Y-91193230D01*
X186691022Y-92043511D01*
X186683408Y-92057455D01*
X185953356Y-92057455D01*
X185954592Y-92055191D01*
X185954461Y-92053358D01*
X185950210Y-92046743D01*
X185100314Y-91196847D01*
X185087746Y-91189984D01*
X185076697Y-91198168D01*
X185050296Y-91232698D01*
X185044832Y-91241177D01*
X184934936Y-91446132D01*
X184930894Y-91455384D01*
X184855182Y-91675270D01*
X184852673Y-91685042D01*
X184813089Y-91914208D01*
X184812174Y-91924256D01*
X184809739Y-92156802D01*
X180226130Y-92156802D01*
X180244940Y-92129988D01*
X180250295Y-92120787D01*
X180344399Y-91922156D01*
X180348123Y-91912197D01*
X180405968Y-91705718D01*
X180404430Y-91697351D01*
X180392137Y-91694000D01*
X179342115Y-91694000D01*
X179326876Y-91698475D01*
X179325671Y-91699865D01*
X179324000Y-91707548D01*
X178816000Y-91707548D01*
X178816000Y-89167548D01*
X179324000Y-89167548D01*
X179324000Y-91167885D01*
X179328475Y-91183124D01*
X179329865Y-91184329D01*
X179337548Y-91186000D01*
X180389079Y-91186000D01*
X180402610Y-91182027D01*
X180403876Y-91173218D01*
X180356954Y-90992433D01*
X180353419Y-90982395D01*
X180282644Y-90825280D01*
X185453891Y-90825280D01*
X185461081Y-90839194D01*
X186306188Y-91684301D01*
X186320132Y-91691915D01*
X186321965Y-91691784D01*
X186328580Y-91687533D01*
X187180493Y-90835620D01*
X187187701Y-90822419D01*
X187181495Y-90813726D01*
X187178120Y-90811380D01*
X186977114Y-90694392D01*
X186968023Y-90690037D01*
X186750907Y-90606694D01*
X186741230Y-90603846D01*
X186513591Y-90556290D01*
X186503564Y-90555023D01*
X186271251Y-90544475D01*
X186261173Y-90544826D01*
X186030150Y-90571556D01*
X186020256Y-90573515D01*
X185796473Y-90636839D01*
X185787029Y-90640351D01*
X185576247Y-90738641D01*
X185567482Y-90743620D01*
X185462215Y-90815159D01*
X185453891Y-90825280D01*
X180282644Y-90825280D01*
X180263147Y-90781998D01*
X180257967Y-90772692D01*
X180135218Y-90590366D01*
X180128557Y-90582080D01*
X179976830Y-90423030D01*
X179968873Y-90415990D01*
X179792524Y-90284783D01*
X179779523Y-90276721D01*
X179732170Y-90223823D01*
X179720933Y-90153721D01*
X179749380Y-90088673D01*
X179772666Y-90067122D01*
X179949041Y-89941083D01*
X179957149Y-89934182D01*
X180111893Y-89778082D01*
X180118706Y-89769933D01*
X180244940Y-89589988D01*
X180250295Y-89580787D01*
X180344399Y-89382156D01*
X180348123Y-89372197D01*
X180405968Y-89165718D01*
X180404430Y-89157351D01*
X180392137Y-89154000D01*
X179342115Y-89154000D01*
X179326876Y-89158475D01*
X179325671Y-89159865D01*
X179324000Y-89167548D01*
X178816000Y-89167548D01*
X178816000Y-86627548D01*
X179324000Y-86627548D01*
X179324000Y-88627885D01*
X179328475Y-88643124D01*
X179329865Y-88644329D01*
X179337548Y-88646000D01*
X180389079Y-88646000D01*
X180402610Y-88642027D01*
X180403876Y-88633218D01*
X180356954Y-88452433D01*
X180353419Y-88442395D01*
X180263147Y-88241998D01*
X180257967Y-88232692D01*
X180135218Y-88050366D01*
X180128557Y-88042080D01*
X179976830Y-87883030D01*
X179968873Y-87875990D01*
X179792524Y-87744783D01*
X179779523Y-87736721D01*
X179732170Y-87683823D01*
X179720933Y-87613721D01*
X179749380Y-87548673D01*
X179772666Y-87527122D01*
X179949041Y-87401083D01*
X179957149Y-87394182D01*
X180111893Y-87238082D01*
X180118706Y-87229933D01*
X180244940Y-87049988D01*
X180250295Y-87040787D01*
X180344399Y-86842156D01*
X180348123Y-86832197D01*
X180405968Y-86625718D01*
X180404430Y-86617351D01*
X180392137Y-86614000D01*
X179342115Y-86614000D01*
X179326876Y-86618475D01*
X179325671Y-86619865D01*
X179324000Y-86627548D01*
X178816000Y-86627548D01*
X178816000Y-84087548D01*
X179324000Y-84087548D01*
X179324000Y-86087885D01*
X179328475Y-86103124D01*
X179329865Y-86104329D01*
X179337548Y-86106000D01*
X180389079Y-86106000D01*
X180402610Y-86102027D01*
X180403876Y-86093218D01*
X180356954Y-85912433D01*
X180353419Y-85902395D01*
X180263147Y-85701998D01*
X180257967Y-85692692D01*
X180135218Y-85510366D01*
X180128557Y-85502080D01*
X179976830Y-85343030D01*
X179968873Y-85335990D01*
X179792524Y-85204783D01*
X179779523Y-85196721D01*
X179732170Y-85143823D01*
X179720933Y-85073721D01*
X179749380Y-85008673D01*
X179772666Y-84987122D01*
X179949041Y-84861083D01*
X179957149Y-84854182D01*
X180111893Y-84698082D01*
X180118706Y-84689933D01*
X180244940Y-84509988D01*
X180250295Y-84500787D01*
X180344399Y-84302156D01*
X180348123Y-84292197D01*
X180405968Y-84085718D01*
X180404430Y-84077351D01*
X180392137Y-84074000D01*
X179342115Y-84074000D01*
X179326876Y-84078475D01*
X179325671Y-84079865D01*
X179324000Y-84087548D01*
X178816000Y-84087548D01*
X178816000Y-81547548D01*
X179324000Y-81547548D01*
X179324000Y-83547885D01*
X179328475Y-83563124D01*
X179329865Y-83564329D01*
X179337548Y-83566000D01*
X180389079Y-83566000D01*
X180402610Y-83562027D01*
X180403876Y-83553218D01*
X180356954Y-83372433D01*
X180353419Y-83362395D01*
X180263147Y-83161998D01*
X180257967Y-83152692D01*
X180135218Y-82970366D01*
X180128557Y-82962080D01*
X179999947Y-82827262D01*
X179967400Y-82764165D01*
X179974132Y-82693488D01*
X180018006Y-82637671D01*
X180055618Y-82619394D01*
X180124460Y-82599180D01*
X180140692Y-82591767D01*
X180248360Y-82522574D01*
X180261847Y-82510888D01*
X180345662Y-82414160D01*
X180355307Y-82399152D01*
X180408477Y-82282725D01*
X180413502Y-82265612D01*
X180432361Y-82134446D01*
X180433000Y-82125505D01*
X180433000Y-81552115D01*
X180428525Y-81536876D01*
X180427135Y-81535671D01*
X180419452Y-81534000D01*
X179342115Y-81534000D01*
X179326876Y-81538475D01*
X179325671Y-81539865D01*
X179324000Y-81547548D01*
X178816000Y-81547548D01*
X178816000Y-79935115D01*
X178814659Y-79930548D01*
X179324000Y-79930548D01*
X179324000Y-81007885D01*
X179328475Y-81023124D01*
X179329865Y-81024329D01*
X179337548Y-81026000D01*
X180414885Y-81026000D01*
X180430124Y-81021525D01*
X180431329Y-81020135D01*
X180433000Y-81012452D01*
X180433000Y-80432257D01*
X180432839Y-80427750D01*
X180428260Y-80363731D01*
X180425874Y-80350509D01*
X180389181Y-80225542D01*
X180381767Y-80209308D01*
X180312574Y-80101640D01*
X180300888Y-80088153D01*
X180204160Y-80004338D01*
X180189152Y-79994693D01*
X180072725Y-79941523D01*
X180055612Y-79936498D01*
X179924446Y-79917639D01*
X179915505Y-79917000D01*
X179342115Y-79917000D01*
X179326876Y-79921475D01*
X179325671Y-79922865D01*
X179324000Y-79930548D01*
X178814659Y-79930548D01*
X178811525Y-79919876D01*
X178810135Y-79918671D01*
X178802452Y-79917000D01*
X178222257Y-79917000D01*
X178217750Y-79917161D01*
X178153731Y-79921740D01*
X178140509Y-79924126D01*
X178015542Y-79960819D01*
X177999308Y-79968233D01*
X177891640Y-80037426D01*
X177879881Y-80047615D01*
X177815300Y-80077107D01*
X177745026Y-80067002D01*
X177714858Y-80047613D01*
X177664435Y-80003921D01*
X177664430Y-80003918D01*
X177657619Y-79998016D01*
X177524670Y-79937300D01*
X177518375Y-79936395D01*
X177459777Y-79898737D01*
X177430283Y-79834156D01*
X177429000Y-79816223D01*
X177429000Y-79010000D01*
X183271000Y-79010000D01*
X183271000Y-88408000D01*
G37*
%TD.AperFunction*%
%TD*%
%TA.AperFunction,Conductor*%
%TO.N,GND*%
G36*
X181435121Y-53884002D02*
G01*
X181481614Y-53937658D01*
X181493000Y-53990000D01*
X181493000Y-58182000D01*
X181503827Y-58189218D01*
X181503828Y-58189219D01*
X184484892Y-60176595D01*
X184530477Y-60231024D01*
X184541000Y-60281433D01*
X184541000Y-64278000D01*
X188097000Y-65294000D01*
X189017060Y-65524015D01*
X189078295Y-65559942D01*
X189110386Y-65623271D01*
X189112500Y-65646253D01*
X189112500Y-70798550D01*
X189092498Y-70866671D01*
X189035396Y-70914676D01*
X184287000Y-72914000D01*
X184268691Y-72959773D01*
X183454562Y-74995096D01*
X182763000Y-76724000D01*
X177429000Y-76724000D01*
X177416809Y-75626795D01*
X177407159Y-74758244D01*
X177426403Y-74689905D01*
X177443668Y-74668138D01*
X177572277Y-74538403D01*
X177572278Y-74538402D01*
X177576030Y-74534617D01*
X177697953Y-74360816D01*
X177753449Y-74316536D01*
X177824075Y-74309289D01*
X177887407Y-74341375D01*
X177911781Y-74372958D01*
X177929550Y-74405617D01*
X177935402Y-74414491D01*
X178071486Y-74587113D01*
X178078750Y-74594875D01*
X178241967Y-74742094D01*
X178250444Y-74748528D01*
X178436122Y-74866136D01*
X178445567Y-74871053D01*
X178648406Y-74955694D01*
X178658545Y-74958950D01*
X178798345Y-74991096D01*
X178812422Y-74990257D01*
X178816000Y-74980999D01*
X178816000Y-73927548D01*
X179324000Y-73927548D01*
X179324000Y-74979941D01*
X179328151Y-74994079D01*
X179338798Y-74995774D01*
X179342192Y-74995096D01*
X179553333Y-74933954D01*
X179563259Y-74930143D01*
X179761065Y-74834307D01*
X179770212Y-74828876D01*
X179949041Y-74701083D01*
X179957149Y-74694182D01*
X180111893Y-74538082D01*
X180118706Y-74529933D01*
X180244940Y-74349988D01*
X180250295Y-74340787D01*
X180344399Y-74142156D01*
X180348123Y-74132197D01*
X180405968Y-73925718D01*
X180404430Y-73917351D01*
X180392137Y-73914000D01*
X179342115Y-73914000D01*
X179326876Y-73918475D01*
X179325671Y-73919865D01*
X179324000Y-73927548D01*
X178816000Y-73927548D01*
X178816000Y-71387548D01*
X179324000Y-71387548D01*
X179324000Y-73387885D01*
X179328475Y-73403124D01*
X179329865Y-73404329D01*
X179337548Y-73406000D01*
X180389079Y-73406000D01*
X180402610Y-73402027D01*
X180403876Y-73393218D01*
X180356954Y-73212433D01*
X180353419Y-73202395D01*
X180263147Y-73001998D01*
X180257967Y-72992692D01*
X180135218Y-72810366D01*
X180128557Y-72802080D01*
X179976830Y-72643030D01*
X179968873Y-72635990D01*
X179792524Y-72504783D01*
X179779523Y-72496721D01*
X179732170Y-72443823D01*
X179720933Y-72373721D01*
X179749380Y-72308673D01*
X179772666Y-72287122D01*
X179949041Y-72161083D01*
X179957149Y-72154182D01*
X180111893Y-71998082D01*
X180118706Y-71989933D01*
X180244940Y-71809988D01*
X180250295Y-71800787D01*
X180344399Y-71602156D01*
X180348123Y-71592197D01*
X180405968Y-71385718D01*
X180404430Y-71377351D01*
X180392137Y-71374000D01*
X179342115Y-71374000D01*
X179326876Y-71378475D01*
X179325671Y-71379865D01*
X179324000Y-71387548D01*
X178816000Y-71387548D01*
X178816000Y-68847548D01*
X179324000Y-68847548D01*
X179324000Y-70847885D01*
X179328475Y-70863124D01*
X179329865Y-70864329D01*
X179337548Y-70866000D01*
X180389079Y-70866000D01*
X180402610Y-70862027D01*
X180403876Y-70853218D01*
X180356954Y-70672433D01*
X180353419Y-70662395D01*
X180263147Y-70461998D01*
X180257967Y-70452692D01*
X180135218Y-70270366D01*
X180128557Y-70262080D01*
X179976830Y-70103030D01*
X179968873Y-70095990D01*
X179792524Y-69964783D01*
X179779523Y-69956721D01*
X179732170Y-69903823D01*
X179720933Y-69833721D01*
X179749380Y-69768673D01*
X179772666Y-69747122D01*
X179949041Y-69621083D01*
X179957149Y-69614182D01*
X180111893Y-69458082D01*
X180118706Y-69449933D01*
X180244940Y-69269988D01*
X180250295Y-69260787D01*
X180299844Y-69156200D01*
X185453739Y-69156200D01*
X185462846Y-69168057D01*
X185540157Y-69223000D01*
X185548815Y-69228161D01*
X185757488Y-69330841D01*
X185766872Y-69334556D01*
X185989257Y-69402546D01*
X185999127Y-69404716D01*
X186229520Y-69436276D01*
X186239611Y-69436840D01*
X186472091Y-69431159D01*
X186482124Y-69430104D01*
X186710716Y-69387324D01*
X186720455Y-69384678D01*
X186939263Y-69305902D01*
X186948456Y-69301732D01*
X187151848Y-69188990D01*
X187160264Y-69183399D01*
X187177704Y-69169676D01*
X187186173Y-69157774D01*
X187179676Y-69146209D01*
X186331812Y-68298345D01*
X186317868Y-68290731D01*
X186316035Y-68290862D01*
X186309420Y-68295113D01*
X185460243Y-69144290D01*
X185453739Y-69156200D01*
X180299844Y-69156200D01*
X180344399Y-69062156D01*
X180348123Y-69052197D01*
X180405968Y-68845718D01*
X180404430Y-68837351D01*
X180392137Y-68834000D01*
X179342115Y-68834000D01*
X179326876Y-68838475D01*
X179325671Y-68839865D01*
X179324000Y-68847548D01*
X178816000Y-68847548D01*
X178816000Y-66307548D01*
X179324000Y-66307548D01*
X179324000Y-68307885D01*
X179328475Y-68323124D01*
X179329865Y-68324329D01*
X179337548Y-68326000D01*
X180389079Y-68326000D01*
X180402610Y-68322027D01*
X180403876Y-68313218D01*
X180356954Y-68132433D01*
X180353419Y-68122395D01*
X180310358Y-68026802D01*
X184809739Y-68026802D01*
X184810443Y-68036873D01*
X184845218Y-68266813D01*
X184847522Y-68276637D01*
X184918613Y-68498058D01*
X184922461Y-68507394D01*
X185028040Y-68714606D01*
X185033325Y-68723197D01*
X185077392Y-68783406D01*
X185088404Y-68791836D01*
X185101146Y-68784967D01*
X185946978Y-67939135D01*
X185953356Y-67927455D01*
X186683408Y-67927455D01*
X186683539Y-67929288D01*
X186687790Y-67935903D01*
X187537567Y-68785680D01*
X187549947Y-68792440D01*
X187558680Y-68785902D01*
X187642069Y-68659436D01*
X187646926Y-68650601D01*
X187742259Y-68438477D01*
X187745642Y-68428976D01*
X187805836Y-68204330D01*
X187807655Y-68194418D01*
X187831378Y-67960863D01*
X187831698Y-67955139D01*
X187831970Y-67929180D01*
X187831771Y-67923475D01*
X187812943Y-67689465D01*
X187811331Y-67679512D01*
X187755856Y-67453660D01*
X187752673Y-67444090D01*
X187661803Y-67230013D01*
X187657130Y-67221076D01*
X187561036Y-67068478D01*
X187550465Y-67059147D01*
X187541303Y-67063230D01*
X186691022Y-67913511D01*
X186683408Y-67927455D01*
X185953356Y-67927455D01*
X185954592Y-67925191D01*
X185954461Y-67923358D01*
X185950210Y-67916743D01*
X185100314Y-67066847D01*
X185087746Y-67059984D01*
X185076697Y-67068168D01*
X185050296Y-67102698D01*
X185044832Y-67111177D01*
X184934936Y-67316132D01*
X184930894Y-67325384D01*
X184855182Y-67545270D01*
X184852673Y-67555042D01*
X184813089Y-67784208D01*
X184812174Y-67794256D01*
X184809739Y-68026802D01*
X180310358Y-68026802D01*
X180263147Y-67921998D01*
X180257967Y-67912692D01*
X180135218Y-67730366D01*
X180128557Y-67722080D01*
X179976830Y-67563030D01*
X179968873Y-67555990D01*
X179792524Y-67424783D01*
X179779523Y-67416721D01*
X179732170Y-67363823D01*
X179720933Y-67293721D01*
X179749380Y-67228673D01*
X179772666Y-67207122D01*
X179949041Y-67081083D01*
X179957149Y-67074182D01*
X180111893Y-66918082D01*
X180118706Y-66909933D01*
X180244940Y-66729988D01*
X180250295Y-66720787D01*
X180262379Y-66695280D01*
X185453891Y-66695280D01*
X185461081Y-66709194D01*
X186306188Y-67554301D01*
X186320132Y-67561915D01*
X186321965Y-67561784D01*
X186328580Y-67557533D01*
X187180493Y-66705620D01*
X187187701Y-66692419D01*
X187181495Y-66683726D01*
X187178120Y-66681380D01*
X186977114Y-66564392D01*
X186968023Y-66560037D01*
X186750907Y-66476694D01*
X186741230Y-66473846D01*
X186513591Y-66426290D01*
X186503564Y-66425023D01*
X186271251Y-66414475D01*
X186261173Y-66414826D01*
X186030150Y-66441556D01*
X186020256Y-66443515D01*
X185796473Y-66506839D01*
X185787029Y-66510351D01*
X185576247Y-66608641D01*
X185567482Y-66613620D01*
X185462215Y-66685159D01*
X185453891Y-66695280D01*
X180262379Y-66695280D01*
X180344399Y-66522156D01*
X180348123Y-66512197D01*
X180405968Y-66305718D01*
X180404430Y-66297351D01*
X180392137Y-66294000D01*
X179342115Y-66294000D01*
X179326876Y-66298475D01*
X179325671Y-66299865D01*
X179324000Y-66307548D01*
X178816000Y-66307548D01*
X178816000Y-63767548D01*
X179324000Y-63767548D01*
X179324000Y-65767885D01*
X179328475Y-65783124D01*
X179329865Y-65784329D01*
X179337548Y-65786000D01*
X180389079Y-65786000D01*
X180402610Y-65782027D01*
X180403876Y-65773218D01*
X180356954Y-65592433D01*
X180353419Y-65582395D01*
X180263147Y-65381998D01*
X180257967Y-65372692D01*
X180135218Y-65190366D01*
X180128557Y-65182080D01*
X179976830Y-65023030D01*
X179968873Y-65015990D01*
X179792524Y-64884783D01*
X179779523Y-64876721D01*
X179732170Y-64823823D01*
X179720933Y-64753721D01*
X179749380Y-64688673D01*
X179772666Y-64667122D01*
X179949041Y-64541083D01*
X179957149Y-64534182D01*
X180111893Y-64378082D01*
X180118706Y-64369933D01*
X180244940Y-64189988D01*
X180250295Y-64180787D01*
X180344399Y-63982156D01*
X180348123Y-63972197D01*
X180405968Y-63765718D01*
X180404430Y-63757351D01*
X180392137Y-63754000D01*
X179342115Y-63754000D01*
X179326876Y-63758475D01*
X179325671Y-63759865D01*
X179324000Y-63767548D01*
X178816000Y-63767548D01*
X178816000Y-61227548D01*
X179324000Y-61227548D01*
X179324000Y-63227885D01*
X179328475Y-63243124D01*
X179329865Y-63244329D01*
X179337548Y-63246000D01*
X180389079Y-63246000D01*
X180402610Y-63242027D01*
X180403876Y-63233218D01*
X180356954Y-63052433D01*
X180353419Y-63042395D01*
X180263147Y-62841998D01*
X180257967Y-62832692D01*
X180135218Y-62650366D01*
X180128557Y-62642080D01*
X179976830Y-62483030D01*
X179968873Y-62475990D01*
X179792524Y-62344783D01*
X179779523Y-62336721D01*
X179732170Y-62283823D01*
X179720933Y-62213721D01*
X179749380Y-62148673D01*
X179772666Y-62127122D01*
X179949041Y-62001083D01*
X179957149Y-61994182D01*
X180111893Y-61838082D01*
X180118706Y-61829933D01*
X180244940Y-61649988D01*
X180250295Y-61640787D01*
X180344399Y-61442156D01*
X180348123Y-61432197D01*
X180405968Y-61225718D01*
X180404430Y-61217351D01*
X180392137Y-61214000D01*
X179342115Y-61214000D01*
X179326876Y-61218475D01*
X179325671Y-61219865D01*
X179324000Y-61227548D01*
X178816000Y-61227548D01*
X178816000Y-58687548D01*
X179324000Y-58687548D01*
X179324000Y-60687885D01*
X179328475Y-60703124D01*
X179329865Y-60704329D01*
X179337548Y-60706000D01*
X180389079Y-60706000D01*
X180402610Y-60702027D01*
X180403876Y-60693218D01*
X180356954Y-60512433D01*
X180353419Y-60502395D01*
X180263147Y-60301998D01*
X180257967Y-60292692D01*
X180135218Y-60110366D01*
X180128557Y-60102080D01*
X179976830Y-59943030D01*
X179968873Y-59935990D01*
X179792524Y-59804783D01*
X179779523Y-59796721D01*
X179732170Y-59743823D01*
X179720933Y-59673721D01*
X179749380Y-59608673D01*
X179772666Y-59587122D01*
X179949041Y-59461083D01*
X179957149Y-59454182D01*
X180111893Y-59298082D01*
X180118706Y-59289933D01*
X180244940Y-59109988D01*
X180250295Y-59100787D01*
X180344399Y-58902156D01*
X180348123Y-58892197D01*
X180405968Y-58685718D01*
X180404430Y-58677351D01*
X180392137Y-58674000D01*
X179342115Y-58674000D01*
X179326876Y-58678475D01*
X179325671Y-58679865D01*
X179324000Y-58687548D01*
X178816000Y-58687548D01*
X178816000Y-56147548D01*
X179324000Y-56147548D01*
X179324000Y-58147885D01*
X179328475Y-58163124D01*
X179329865Y-58164329D01*
X179337548Y-58166000D01*
X180389079Y-58166000D01*
X180402610Y-58162027D01*
X180403876Y-58153218D01*
X180356954Y-57972433D01*
X180353419Y-57962395D01*
X180263147Y-57761998D01*
X180257967Y-57752692D01*
X180135218Y-57570366D01*
X180128557Y-57562080D01*
X179999947Y-57427262D01*
X179967400Y-57364165D01*
X179974132Y-57293488D01*
X180018006Y-57237671D01*
X180055618Y-57219394D01*
X180124460Y-57199180D01*
X180140692Y-57191767D01*
X180248360Y-57122574D01*
X180261847Y-57110888D01*
X180345662Y-57014160D01*
X180355307Y-56999152D01*
X180408477Y-56882725D01*
X180413502Y-56865612D01*
X180432361Y-56734446D01*
X180433000Y-56725505D01*
X180433000Y-56152115D01*
X180428525Y-56136876D01*
X180427135Y-56135671D01*
X180419452Y-56134000D01*
X179342115Y-56134000D01*
X179326876Y-56138475D01*
X179325671Y-56139865D01*
X179324000Y-56147548D01*
X178816000Y-56147548D01*
X178816000Y-54535115D01*
X178814659Y-54530548D01*
X179324000Y-54530548D01*
X179324000Y-55607885D01*
X179328475Y-55623124D01*
X179329865Y-55624329D01*
X179337548Y-55626000D01*
X180414885Y-55626000D01*
X180430124Y-55621525D01*
X180431329Y-55620135D01*
X180433000Y-55612452D01*
X180433000Y-55032257D01*
X180432839Y-55027750D01*
X180428260Y-54963731D01*
X180425874Y-54950509D01*
X180389181Y-54825542D01*
X180381767Y-54809308D01*
X180312574Y-54701640D01*
X180300888Y-54688153D01*
X180204160Y-54604338D01*
X180189152Y-54594693D01*
X180072725Y-54541523D01*
X180055612Y-54536498D01*
X179924446Y-54517639D01*
X179915505Y-54517000D01*
X179342115Y-54517000D01*
X179326876Y-54521475D01*
X179325671Y-54522865D01*
X179324000Y-54530548D01*
X178814659Y-54530548D01*
X178811525Y-54519876D01*
X178810135Y-54518671D01*
X178802452Y-54517000D01*
X178222257Y-54517000D01*
X178217750Y-54517161D01*
X178153731Y-54521740D01*
X178140509Y-54524126D01*
X178015542Y-54560819D01*
X177999308Y-54568233D01*
X177891640Y-54637426D01*
X177879881Y-54647615D01*
X177815300Y-54677107D01*
X177745026Y-54667002D01*
X177714858Y-54647613D01*
X177664435Y-54603921D01*
X177664430Y-54603918D01*
X177657619Y-54598016D01*
X177524670Y-54537300D01*
X177515755Y-54536018D01*
X177515754Y-54536018D01*
X177384448Y-54517139D01*
X177384441Y-54517138D01*
X177380000Y-54516500D01*
X177306858Y-54516500D01*
X177238737Y-54496498D01*
X177192244Y-54442842D01*
X177180866Y-54391900D01*
X177176416Y-53991400D01*
X177195660Y-53923061D01*
X177248796Y-53875975D01*
X177302408Y-53864000D01*
X181367000Y-53864000D01*
X181435121Y-53884002D01*
G37*
%TD.AperFunction*%
%TD*%
%TA.AperFunction,Conductor*%
%TO.N,GND*%
G36*
X183467121Y-75474002D02*
G01*
X183513614Y-75527658D01*
X183525000Y-75580000D01*
X183525000Y-81170000D01*
X183504998Y-81238121D01*
X183451342Y-81284614D01*
X183399000Y-81296000D01*
X178816000Y-81296000D01*
X178816000Y-79935115D01*
X178814659Y-79930548D01*
X179324000Y-79930548D01*
X179324000Y-81007885D01*
X179328475Y-81023124D01*
X179329865Y-81024329D01*
X179337548Y-81026000D01*
X180414885Y-81026000D01*
X180430124Y-81021525D01*
X180431329Y-81020135D01*
X180433000Y-81012452D01*
X180433000Y-80432257D01*
X180432839Y-80427750D01*
X180428260Y-80363731D01*
X180425874Y-80350509D01*
X180389181Y-80225542D01*
X180381767Y-80209308D01*
X180312574Y-80101640D01*
X180300888Y-80088153D01*
X180204160Y-80004338D01*
X180189152Y-79994693D01*
X180072725Y-79941523D01*
X180055612Y-79936498D01*
X179924446Y-79917639D01*
X179915505Y-79917000D01*
X179342115Y-79917000D01*
X179326876Y-79921475D01*
X179325671Y-79922865D01*
X179324000Y-79930548D01*
X178814659Y-79930548D01*
X178811525Y-79919876D01*
X178810135Y-79918671D01*
X178802452Y-79917000D01*
X178222257Y-79917000D01*
X178217750Y-79917161D01*
X178153731Y-79921740D01*
X178140509Y-79924126D01*
X178015542Y-79960819D01*
X177999308Y-79968233D01*
X177891640Y-80037426D01*
X177879881Y-80047615D01*
X177815300Y-80077107D01*
X177745026Y-80067002D01*
X177714858Y-80047613D01*
X177664435Y-80003921D01*
X177664430Y-80003918D01*
X177657619Y-79998016D01*
X177524670Y-79937300D01*
X177518375Y-79936395D01*
X177459777Y-79898737D01*
X177430283Y-79834156D01*
X177429000Y-79816223D01*
X177429000Y-75454000D01*
X183399000Y-75454000D01*
X183467121Y-75474002D01*
G37*
%TD.AperFunction*%
%TD*%
M02*
