%TF.GenerationSoftware,KiCad,Pcbnew,(5.99.0-9393-ga28cb98626)*%
%TF.CreationDate,2021-03-12T19:06:23-08:00*%
%TF.ProjectId,SimpleServoCtrl,53696d70-6c65-4536-9572-766f4374726c,n/c*%
%TF.SameCoordinates,Original*%
%TF.FileFunction,Legend,Bot*%
%TF.FilePolarity,Positive*%
%FSLAX46Y46*%
G04 Gerber Fmt 4.6, Leading zero omitted, Abs format (unit mm)*
G04 Created by KiCad (PCBNEW (5.99.0-9393-ga28cb98626)) date 2021-03-12 19:06:23*
%MOMM*%
%LPD*%
G01*
G04 APERTURE LIST*
%ADD10C,0.150000*%
G04 APERTURE END LIST*
D10*
X183270904Y-79780000D02*
X183366142Y-79732380D01*
X183509000Y-79732380D01*
X183651857Y-79780000D01*
X183747095Y-79875238D01*
X183794714Y-79970476D01*
X183842333Y-80160952D01*
X183842333Y-80303809D01*
X183794714Y-80494285D01*
X183747095Y-80589523D01*
X183651857Y-80684761D01*
X183509000Y-80732380D01*
X183413761Y-80732380D01*
X183270904Y-80684761D01*
X183223285Y-80637142D01*
X183223285Y-80303809D01*
X183413761Y-80303809D01*
X182794714Y-80732380D02*
X182794714Y-79732380D01*
X182223285Y-80732380D01*
X182223285Y-79732380D01*
X181747095Y-80732380D02*
X181747095Y-79732380D01*
X181509000Y-79732380D01*
X181366142Y-79780000D01*
X181270904Y-79875238D01*
X181223285Y-79970476D01*
X181175666Y-80160952D01*
X181175666Y-80303809D01*
X181223285Y-80494285D01*
X181270904Y-80589523D01*
X181366142Y-80684761D01*
X181509000Y-80732380D01*
X181747095Y-80732380D01*
X183794714Y-75017428D02*
X183032809Y-75017428D01*
X183413761Y-75398380D02*
X183413761Y-74636476D01*
X182128047Y-74398380D02*
X182318523Y-74398380D01*
X182413761Y-74446000D01*
X182461380Y-74493619D01*
X182556619Y-74636476D01*
X182604238Y-74826952D01*
X182604238Y-75207904D01*
X182556619Y-75303142D01*
X182509000Y-75350761D01*
X182413761Y-75398380D01*
X182223285Y-75398380D01*
X182128047Y-75350761D01*
X182080428Y-75303142D01*
X182032809Y-75207904D01*
X182032809Y-74969809D01*
X182080428Y-74874571D01*
X182128047Y-74826952D01*
X182223285Y-74779333D01*
X182413761Y-74779333D01*
X182509000Y-74826952D01*
X182556619Y-74874571D01*
X182604238Y-74969809D01*
X181747095Y-74398380D02*
X181413761Y-75398380D01*
X181080428Y-74398380D01*
X136447666Y-71080380D02*
X136781000Y-70604190D01*
X137019095Y-71080380D02*
X137019095Y-70080380D01*
X136638142Y-70080380D01*
X136542904Y-70128000D01*
X136495285Y-70175619D01*
X136447666Y-70270857D01*
X136447666Y-70413714D01*
X136495285Y-70508952D01*
X136542904Y-70556571D01*
X136638142Y-70604190D01*
X137019095Y-70604190D01*
X136114333Y-70080380D02*
X135447666Y-71080380D01*
X135447666Y-70080380D02*
X136114333Y-71080380D01*
X137042904Y-67794380D02*
X136471476Y-67794380D01*
X136757190Y-68794380D02*
X136757190Y-67794380D01*
X136233380Y-67794380D02*
X135566714Y-68794380D01*
X135566714Y-67794380D02*
X136233380Y-68794380D01*
X137296904Y-65048000D02*
X137392142Y-65000380D01*
X137535000Y-65000380D01*
X137677857Y-65048000D01*
X137773095Y-65143238D01*
X137820714Y-65238476D01*
X137868333Y-65428952D01*
X137868333Y-65571809D01*
X137820714Y-65762285D01*
X137773095Y-65857523D01*
X137677857Y-65952761D01*
X137535000Y-66000380D01*
X137439761Y-66000380D01*
X137296904Y-65952761D01*
X137249285Y-65905142D01*
X137249285Y-65571809D01*
X137439761Y-65571809D01*
X136820714Y-66000380D02*
X136820714Y-65000380D01*
X136249285Y-66000380D01*
X136249285Y-65000380D01*
X135773095Y-66000380D02*
X135773095Y-65000380D01*
X135535000Y-65000380D01*
X135392142Y-65048000D01*
X135296904Y-65143238D01*
X135249285Y-65238476D01*
X135201666Y-65428952D01*
X135201666Y-65571809D01*
X135249285Y-65762285D01*
X135296904Y-65857523D01*
X135392142Y-65952761D01*
X135535000Y-66000380D01*
X135773095Y-66000380D01*
X139058904Y-63079428D02*
X138297000Y-63079428D01*
X138677952Y-63460380D02*
X138677952Y-62698476D01*
X137297000Y-63460380D02*
X137868428Y-63460380D01*
X137582714Y-63460380D02*
X137582714Y-62460380D01*
X137677952Y-62603238D01*
X137773190Y-62698476D01*
X137868428Y-62746095D01*
X136916047Y-62555619D02*
X136868428Y-62508000D01*
X136773190Y-62460380D01*
X136535095Y-62460380D01*
X136439857Y-62508000D01*
X136392238Y-62555619D01*
X136344619Y-62650857D01*
X136344619Y-62746095D01*
X136392238Y-62888952D01*
X136963666Y-63460380D01*
X136344619Y-63460380D01*
X136058904Y-62460380D02*
X135725571Y-63460380D01*
X135392238Y-62460380D01*
M02*
