G04 #@! TF.FileFunction,Copper,L1,Top,Signal*
%FSLAX46Y46*%
G04 Gerber Fmt 4.6, Leading zero omitted, Abs format (unit mm)*
G04 Created by KiCad (PCBNEW (2015-04-09 BZR 5589)-product) date Sunday, April 12, 2015 'PMt' 01:39:24 PM*
%MOMM*%
G01*
G04 APERTURE LIST*
%ADD10C,0.150000*%
%ADD11C,1.501140*%
%ADD12R,1.500000X1.250000*%
%ADD13R,1.250000X1.500000*%
%ADD14R,1.597660X1.800860*%
%ADD15R,1.800860X2.700020*%
%ADD16R,2.032000X1.727200*%
%ADD17O,2.032000X1.727200*%
%ADD18R,2.540000X2.540000*%
%ADD19C,2.540000*%
%ADD20R,1.500000X1.300000*%
%ADD21R,1.550000X1.300000*%
%ADD22R,1.397000X1.397000*%
%ADD23C,1.397000*%
%ADD24C,1.778000*%
%ADD25R,1.778000X1.778000*%
%ADD26C,1.016000*%
%ADD27C,2.540000*%
%ADD28C,1.270000*%
%ADD29C,0.635000*%
%ADD30C,0.304800*%
G04 APERTURE END LIST*
D10*
X148844000Y-99898200D02*
X148844000Y-100965000D01*
X149352000Y-100457000D02*
X148310600Y-100457000D01*
D11*
X174625000Y-100330000D03*
X169545000Y-100330000D03*
X147320000Y-102235000D03*
X147320000Y-99695000D03*
D12*
X168890000Y-125095000D03*
X166390000Y-125095000D03*
D13*
X154305000Y-109835000D03*
X154305000Y-107335000D03*
D14*
X141754860Y-104140000D03*
X138915140Y-104140000D03*
X141754860Y-111760000D03*
X138915140Y-111760000D03*
X141754860Y-119380000D03*
X138915140Y-119380000D03*
D15*
X116979700Y-102235000D03*
X121780300Y-102235000D03*
D16*
X182880000Y-106680000D03*
D17*
X182880000Y-109220000D03*
X182880000Y-111760000D03*
X182880000Y-114300000D03*
X182880000Y-116840000D03*
X182880000Y-119380000D03*
X182880000Y-121920000D03*
X182880000Y-124460000D03*
D16*
X187960000Y-106680000D03*
D17*
X187960000Y-109220000D03*
X187960000Y-111760000D03*
X187960000Y-114300000D03*
X187960000Y-116840000D03*
X187960000Y-119380000D03*
X187960000Y-121920000D03*
X187960000Y-124460000D03*
D16*
X185420000Y-106680000D03*
D17*
X185420000Y-109220000D03*
X185420000Y-111760000D03*
X185420000Y-114300000D03*
X185420000Y-116840000D03*
X185420000Y-119380000D03*
X185420000Y-121920000D03*
X185420000Y-124460000D03*
D16*
X182880000Y-130810000D03*
D17*
X182880000Y-133350000D03*
X182880000Y-135890000D03*
X182880000Y-138430000D03*
X182880000Y-140970000D03*
X182880000Y-143510000D03*
X182880000Y-146050000D03*
X182880000Y-148590000D03*
D16*
X187960000Y-130810000D03*
D17*
X187960000Y-133350000D03*
X187960000Y-135890000D03*
X187960000Y-138430000D03*
X187960000Y-140970000D03*
X187960000Y-143510000D03*
X187960000Y-146050000D03*
X187960000Y-148590000D03*
D16*
X185420000Y-130810000D03*
D17*
X185420000Y-133350000D03*
X185420000Y-135890000D03*
X185420000Y-138430000D03*
X185420000Y-140970000D03*
X185420000Y-143510000D03*
X185420000Y-146050000D03*
X185420000Y-148590000D03*
D16*
X130175000Y-133350000D03*
D17*
X130175000Y-135890000D03*
X130175000Y-138430000D03*
X130175000Y-140970000D03*
X130175000Y-143510000D03*
D18*
X118745000Y-126365000D03*
D19*
X118745000Y-131445000D03*
X118745000Y-136525000D03*
D18*
X118745000Y-108585000D03*
D19*
X118745000Y-113665000D03*
D20*
X173275000Y-106680000D03*
X175975000Y-106680000D03*
X173275000Y-109220000D03*
X175975000Y-109220000D03*
X173275000Y-111760000D03*
X175975000Y-111760000D03*
X173275000Y-114300000D03*
X175975000Y-114300000D03*
X173275000Y-116840000D03*
X175975000Y-116840000D03*
X173275000Y-119380000D03*
X175975000Y-119380000D03*
X173275000Y-121920000D03*
X175975000Y-121920000D03*
X173275000Y-124460000D03*
X175975000Y-124460000D03*
X173275000Y-130810000D03*
X175975000Y-130810000D03*
X173275000Y-133350000D03*
X175975000Y-133350000D03*
X173275000Y-135890000D03*
X175975000Y-135890000D03*
X173275000Y-138430000D03*
X175975000Y-138430000D03*
X173275000Y-140970000D03*
X175975000Y-140970000D03*
X173275000Y-143510000D03*
X175975000Y-143510000D03*
X173275000Y-146050000D03*
X175975000Y-146050000D03*
X173275000Y-148590000D03*
X175975000Y-148590000D03*
X150575000Y-114300000D03*
X147875000Y-114300000D03*
X141685000Y-100965000D03*
X138985000Y-100965000D03*
X150575000Y-116840000D03*
X147875000Y-116840000D03*
X141685000Y-108585000D03*
X138985000Y-108585000D03*
X150575000Y-119380000D03*
X147875000Y-119380000D03*
X141685000Y-116205000D03*
X138985000Y-116205000D03*
X136605000Y-126365000D03*
X133905000Y-126365000D03*
X136605000Y-129540000D03*
X133905000Y-129540000D03*
D21*
X126835000Y-106390000D03*
X126835000Y-101890000D03*
X134785000Y-101890000D03*
X134785000Y-106390000D03*
X126835000Y-114010000D03*
X126835000Y-109510000D03*
X134785000Y-109510000D03*
X134785000Y-114010000D03*
X126835000Y-121630000D03*
X126835000Y-117130000D03*
X134785000Y-117130000D03*
X134785000Y-121630000D03*
D22*
X142240000Y-125730000D03*
D23*
X142240000Y-128270000D03*
X142240000Y-130810000D03*
X142240000Y-133350000D03*
X142240000Y-135890000D03*
X142240000Y-138430000D03*
X142240000Y-140970000D03*
X142240000Y-143510000D03*
X142240000Y-146050000D03*
X149860000Y-146050000D03*
X149860000Y-143510000D03*
X149860000Y-140970000D03*
X149860000Y-138430000D03*
X149860000Y-135890000D03*
X149860000Y-133350000D03*
X149860000Y-130810000D03*
X149860000Y-128270000D03*
X149860000Y-125730000D03*
D22*
X156845000Y-104140000D03*
D23*
X156845000Y-106680000D03*
X156845000Y-109220000D03*
X156845000Y-111760000D03*
X156845000Y-114300000D03*
X156845000Y-116840000D03*
X156845000Y-119380000D03*
X156845000Y-121920000D03*
X164465000Y-121920000D03*
X164465000Y-119380000D03*
X164465000Y-116840000D03*
X164465000Y-114300000D03*
X164465000Y-111760000D03*
X164465000Y-109220000D03*
X164465000Y-106680000D03*
X164465000Y-104140000D03*
D22*
X156845000Y-128270000D03*
D23*
X156845000Y-130810000D03*
X156845000Y-133350000D03*
X156845000Y-135890000D03*
X156845000Y-138430000D03*
X156845000Y-140970000D03*
X156845000Y-143510000D03*
X156845000Y-146050000D03*
X164465000Y-146050000D03*
X164465000Y-143510000D03*
X164465000Y-140970000D03*
X164465000Y-138430000D03*
X164465000Y-135890000D03*
X164465000Y-133350000D03*
X164465000Y-130810000D03*
X164465000Y-128270000D03*
D24*
X151130000Y-104775000D03*
D25*
X151130000Y-107315000D03*
D24*
X151130000Y-109855000D03*
D26*
X149225000Y-121920000D03*
X151765000Y-123825000D03*
X139065000Y-106045000D03*
X139065000Y-113665000D03*
X140335000Y-121285000D03*
X144145000Y-123190000D03*
X146685000Y-135255000D03*
X160655000Y-109220000D03*
X161925000Y-126365000D03*
X161290000Y-114300000D03*
X160655000Y-147320000D03*
X161290000Y-116840000D03*
X160020000Y-106680000D03*
D27*
X113030000Y-100330000D02*
X116840000Y-96520000D01*
D28*
X149225000Y-121920000D02*
X156845000Y-121920000D01*
D29*
X134785000Y-101890000D02*
X126835000Y-101890000D01*
X134785000Y-109510000D02*
X126835000Y-109510000D01*
X134785000Y-117130000D02*
X126835000Y-117130000D01*
X124460000Y-109220000D02*
X124460000Y-104265000D01*
X124460000Y-104265000D02*
X126835000Y-101890000D01*
X124460000Y-113665000D02*
X124460000Y-109220000D01*
X124460000Y-116332000D02*
X124460000Y-113665000D01*
X125258000Y-117130000D02*
X124460000Y-116332000D01*
X126835000Y-117130000D02*
X125258000Y-117130000D01*
X124460000Y-109510000D02*
X124460000Y-109220000D01*
X126835000Y-109510000D02*
X124460000Y-109510000D01*
X120650000Y-138430000D02*
X118745000Y-136525000D01*
X130175000Y-138430000D02*
X120650000Y-138430000D01*
X140335000Y-135890000D02*
X142240000Y-135890000D01*
X137795000Y-138430000D02*
X140335000Y-135890000D01*
X130175000Y-138430000D02*
X137795000Y-138430000D01*
X118745000Y-113665000D02*
X124460000Y-113665000D01*
D28*
X148590000Y-107315000D02*
X147320000Y-106045000D01*
X147320000Y-106045000D02*
X147320000Y-102235000D01*
X151130000Y-107315000D02*
X148590000Y-107315000D01*
D29*
X160020000Y-125095000D02*
X156845000Y-121920000D01*
X166390000Y-125095000D02*
X160020000Y-125095000D01*
X151150000Y-107335000D02*
X151130000Y-107315000D01*
X154305000Y-107335000D02*
X151150000Y-107335000D01*
X116205000Y-113665000D02*
X118745000Y-113665000D01*
X115570000Y-114300000D02*
X116205000Y-113665000D01*
X115570000Y-135890000D02*
X115570000Y-114300000D01*
X116205000Y-136525000D02*
X115570000Y-135890000D01*
X118745000Y-136525000D02*
X116205000Y-136525000D01*
D27*
X174625000Y-98425000D02*
X172720000Y-96520000D01*
X172720000Y-96520000D02*
X116840000Y-96520000D01*
X174625000Y-100330000D02*
X174625000Y-98425000D01*
X113030000Y-100330000D02*
X113030000Y-112395000D01*
X113030000Y-112395000D02*
X114300000Y-113665000D01*
X114300000Y-113665000D02*
X118745000Y-113665000D01*
D28*
X118745000Y-104000300D02*
X116979700Y-102235000D01*
X118745000Y-108585000D02*
X118745000Y-104000300D01*
X151130000Y-100965000D02*
X149860000Y-99695000D01*
X149860000Y-99695000D02*
X147320000Y-99695000D01*
X151130000Y-104775000D02*
X151130000Y-100965000D01*
X144780000Y-99695000D02*
X144145000Y-99060000D01*
X144145000Y-99060000D02*
X124955300Y-99060000D01*
X124955300Y-99060000D02*
X121780300Y-102235000D01*
X147320000Y-99695000D02*
X144780000Y-99695000D01*
D30*
X136605000Y-127635000D02*
X137795000Y-127635000D01*
X146685000Y-123825000D02*
X151765000Y-123825000D01*
X146050000Y-124460000D02*
X146685000Y-123825000D01*
X139065000Y-124460000D02*
X146050000Y-124460000D01*
X138430000Y-125095000D02*
X139065000Y-124460000D01*
X138430000Y-127000000D02*
X138430000Y-125095000D01*
X137795000Y-127635000D02*
X138430000Y-127000000D01*
X151130000Y-113745000D02*
X151130000Y-109855000D01*
X150575000Y-114300000D02*
X151130000Y-113745000D01*
X150575000Y-116840000D02*
X150575000Y-114300000D01*
X150575000Y-119380000D02*
X150575000Y-116840000D01*
X136605000Y-126365000D02*
X136605000Y-127635000D01*
X136605000Y-127635000D02*
X136605000Y-129540000D01*
D29*
X167005000Y-128270000D02*
X168890000Y-126385000D01*
X168890000Y-126385000D02*
X168890000Y-125095000D01*
X164465000Y-128270000D02*
X167005000Y-128270000D01*
X151150000Y-109835000D02*
X151130000Y-109855000D01*
X154305000Y-109835000D02*
X151150000Y-109835000D01*
X141754860Y-101034860D02*
X141685000Y-100965000D01*
D30*
X141754860Y-104140000D02*
X141754860Y-101034860D01*
X147875000Y-110260140D02*
X141754860Y-104140000D01*
X147875000Y-114300000D02*
X147875000Y-110260140D01*
X126835000Y-106390000D02*
X134785000Y-106390000D01*
D29*
X138915140Y-101034860D02*
X138985000Y-100965000D01*
D30*
X138915140Y-104140000D02*
X138915140Y-101034860D01*
X137035000Y-104140000D02*
X134785000Y-106390000D01*
X138915140Y-104140000D02*
X137035000Y-104140000D01*
X139065000Y-106045000D02*
X138915140Y-105895140D01*
X138915140Y-105895140D02*
X138915140Y-104140000D01*
X141754860Y-108654860D02*
X141685000Y-108585000D01*
X141754860Y-111760000D02*
X141754860Y-108654860D01*
X146834860Y-116840000D02*
X141754860Y-111760000D01*
X147875000Y-116840000D02*
X146834860Y-116840000D01*
X126835000Y-114010000D02*
X134785000Y-114010000D01*
X138915140Y-108654860D02*
X138985000Y-108585000D01*
X138915140Y-111760000D02*
X138915140Y-108654860D01*
X137035000Y-111760000D02*
X134785000Y-114010000D01*
X138915140Y-111760000D02*
X137035000Y-111760000D01*
X139065000Y-113665000D02*
X138915140Y-113515140D01*
X138915140Y-113515140D02*
X138915140Y-111760000D01*
X141754860Y-116274860D02*
X141685000Y-116205000D01*
X141754860Y-119380000D02*
X141754860Y-116274860D01*
X147875000Y-119380000D02*
X141754860Y-119380000D01*
X126835000Y-121630000D02*
X134785000Y-121630000D01*
X138915140Y-116274860D02*
X138985000Y-116205000D01*
X138915140Y-119380000D02*
X138915140Y-116274860D01*
X137035000Y-119380000D02*
X134785000Y-121630000D01*
X138915140Y-119380000D02*
X137035000Y-119380000D01*
X138915140Y-119865140D02*
X138915140Y-119380000D01*
X140335000Y-121285000D02*
X138915140Y-119865140D01*
X175975000Y-106680000D02*
X182880000Y-106680000D01*
X175975000Y-109220000D02*
X182880000Y-109220000D01*
X175975000Y-111760000D02*
X182880000Y-111760000D01*
X175975000Y-114300000D02*
X182880000Y-114300000D01*
X175975000Y-116840000D02*
X182880000Y-116840000D01*
X175975000Y-119380000D02*
X182880000Y-119380000D01*
X175975000Y-121920000D02*
X182880000Y-121920000D01*
X175975000Y-124460000D02*
X182880000Y-124460000D01*
X175975000Y-130810000D02*
X182880000Y-130810000D01*
X175975000Y-133350000D02*
X182880000Y-133350000D01*
X175975000Y-135890000D02*
X182880000Y-135890000D01*
X175975000Y-138430000D02*
X182880000Y-138430000D01*
X175975000Y-140970000D02*
X182880000Y-140970000D01*
X175975000Y-143510000D02*
X182880000Y-143510000D01*
X175975000Y-146050000D02*
X182880000Y-146050000D01*
X182880000Y-148590000D02*
X175975000Y-148590000D01*
X142240000Y-133350000D02*
X130175000Y-133350000D01*
X146050000Y-138430000D02*
X144780000Y-139700000D01*
X144780000Y-139700000D02*
X133985000Y-139700000D01*
X133985000Y-139700000D02*
X132715000Y-140970000D01*
X132715000Y-140970000D02*
X130175000Y-140970000D01*
X149860000Y-138430000D02*
X146050000Y-138430000D01*
X146685000Y-140970000D02*
X145415000Y-142240000D01*
X145415000Y-142240000D02*
X133985000Y-142240000D01*
X133985000Y-142240000D02*
X132715000Y-143510000D01*
X132715000Y-143510000D02*
X130175000Y-143510000D01*
X149860000Y-140970000D02*
X146685000Y-140970000D01*
X133985000Y-125095000D02*
X133985000Y-123825000D01*
X134620000Y-123190000D02*
X144145000Y-123190000D01*
X133985000Y-123825000D02*
X134620000Y-123190000D01*
X133905000Y-126365000D02*
X118745000Y-126365000D01*
X133905000Y-125175000D02*
X133985000Y-125095000D01*
X133905000Y-126365000D02*
X133905000Y-125175000D01*
X120650000Y-129540000D02*
X118745000Y-131445000D01*
X133905000Y-129540000D02*
X120650000Y-129540000D01*
X133905000Y-130730000D02*
X134620000Y-131445000D01*
X134620000Y-131445000D02*
X139065000Y-131445000D01*
X139065000Y-131445000D02*
X139700000Y-132080000D01*
X139700000Y-132080000D02*
X143510000Y-132080000D01*
X143510000Y-132080000D02*
X146685000Y-135255000D01*
X133905000Y-129540000D02*
X133905000Y-130730000D01*
X173275000Y-106680000D02*
X164465000Y-106680000D01*
X173275000Y-109220000D02*
X164465000Y-109220000D01*
X173275000Y-111760000D02*
X164465000Y-111760000D01*
X173275000Y-114300000D02*
X164465000Y-114300000D01*
X173275000Y-116840000D02*
X164465000Y-116840000D01*
X173275000Y-119380000D02*
X164465000Y-119380000D01*
X173275000Y-121920000D02*
X164465000Y-121920000D01*
X171450000Y-124460000D02*
X170180000Y-123190000D01*
X170180000Y-123190000D02*
X162560000Y-123190000D01*
X162560000Y-123190000D02*
X158750000Y-119380000D01*
X158750000Y-119380000D02*
X156845000Y-119380000D01*
X173275000Y-124460000D02*
X171450000Y-124460000D01*
X173275000Y-130810000D02*
X164465000Y-130810000D01*
X173275000Y-133350000D02*
X164465000Y-133350000D01*
X173275000Y-135890000D02*
X164465000Y-135890000D01*
X173275000Y-138430000D02*
X164465000Y-138430000D01*
X173275000Y-140970000D02*
X164465000Y-140970000D01*
X173275000Y-143510000D02*
X164465000Y-143510000D01*
X164465000Y-146050000D02*
X173275000Y-146050000D01*
X163830000Y-148590000D02*
X158750000Y-143510000D01*
X158750000Y-143510000D02*
X156845000Y-143510000D01*
X173275000Y-148590000D02*
X163830000Y-148590000D01*
X148590000Y-132080000D02*
X146685000Y-132080000D01*
X140970000Y-125730000D02*
X142240000Y-125730000D01*
X140335000Y-126365000D02*
X140970000Y-125730000D01*
X140335000Y-128905000D02*
X140335000Y-126365000D01*
X140970000Y-129540000D02*
X140335000Y-128905000D01*
X144145000Y-129540000D02*
X140970000Y-129540000D01*
X146685000Y-132080000D02*
X144145000Y-129540000D01*
X154305000Y-133350000D02*
X153035000Y-132080000D01*
X153035000Y-132080000D02*
X148590000Y-132080000D01*
X156845000Y-133350000D02*
X154305000Y-133350000D01*
X160655000Y-109220000D02*
X156845000Y-109220000D01*
X156845000Y-114300000D02*
X161290000Y-114300000D01*
X144780000Y-128270000D02*
X142240000Y-128270000D01*
X148590000Y-124460000D02*
X144780000Y-128270000D01*
X151130000Y-124460000D02*
X148590000Y-124460000D01*
X153035000Y-126365000D02*
X151130000Y-124460000D01*
X161925000Y-126365000D02*
X153035000Y-126365000D01*
X144145000Y-130810000D02*
X142240000Y-130810000D01*
X147955000Y-134620000D02*
X144145000Y-130810000D01*
X152400000Y-134620000D02*
X147955000Y-134620000D01*
X156210000Y-138430000D02*
X152400000Y-134620000D01*
X156845000Y-138430000D02*
X156210000Y-138430000D01*
X156845000Y-116840000D02*
X161290000Y-116840000D01*
X144145000Y-146050000D02*
X142240000Y-146050000D01*
X145415000Y-147320000D02*
X144145000Y-146050000D01*
X160655000Y-147320000D02*
X145415000Y-147320000D01*
X149860000Y-130810000D02*
X153035000Y-130810000D01*
X160020000Y-140970000D02*
X156845000Y-140970000D01*
X161290000Y-139700000D02*
X160020000Y-140970000D01*
X161290000Y-132715000D02*
X161290000Y-139700000D01*
X160655000Y-132080000D02*
X161290000Y-132715000D01*
X154305000Y-132080000D02*
X160655000Y-132080000D01*
X153035000Y-130810000D02*
X154305000Y-132080000D01*
X149860000Y-128270000D02*
X156845000Y-128270000D01*
X156845000Y-130810000D02*
X154305000Y-130810000D01*
X148590000Y-125730000D02*
X149860000Y-125730000D01*
X147955000Y-126365000D02*
X148590000Y-125730000D01*
X147955000Y-128905000D02*
X147955000Y-126365000D01*
X148590000Y-129540000D02*
X147955000Y-128905000D01*
X153035000Y-129540000D02*
X148590000Y-129540000D01*
X154305000Y-130810000D02*
X153035000Y-129540000D01*
X160020000Y-106680000D02*
X156845000Y-106680000D01*
M02*
