M48
;DRILL file {kicad (2015-04-09 BZR 5589)-product} date Sunday, April 12, 2015 'PMt' 01:34:53 PM
;FORMAT={2:4/ absolute / inch / keep zeros}
FMAT,2
INCH,TZ
T1C0.025
T2C0.032
T3C0.032
T4C0.040
T5C0.045
T6C0.060
T7C0.146
%
G90
G05
M72
T1
X054750Y-041750
X054750Y-044750
X055250Y-047750
X056750Y-048500
X057750Y-053250
X058750Y-048000
X059750Y-048750
X063000Y-042000
X063250Y-043000
X063250Y-058000
X063500Y-045000
X063500Y-046000
X063750Y-049750
T2
X058000Y-039250
X058000Y-040250
X066750Y-039500
X068750Y-039500
T3
X056000Y-049500
X056000Y-050500
X056000Y-051500
X056000Y-052500
X056000Y-053500
X056000Y-054500
X056000Y-055500
X056000Y-056500
X056000Y-057500
X059000Y-049500
X059000Y-050500
X059000Y-051500
X059000Y-052500
X059000Y-053500
X059000Y-054500
X059000Y-055500
X059000Y-056500
X059000Y-057500
X061750Y-041000
X061750Y-042000
X061750Y-043000
X061750Y-044000
X061750Y-045000
X061750Y-046000
X061750Y-047000
X061750Y-048000
X061750Y-050500
X061750Y-051500
X061750Y-052500
X061750Y-053500
X061750Y-054500
X061750Y-055500
X061750Y-056500
X061750Y-057500
X064750Y-041000
X064750Y-042000
X064750Y-043000
X064750Y-044000
X064750Y-045000
X064750Y-046000
X064750Y-047000
X064750Y-048000
X064750Y-050500
X064750Y-051500
X064750Y-052500
X064750Y-053500
X064750Y-054500
X064750Y-055500
X064750Y-056500
X064750Y-057500
T4
X051250Y-052500
X051250Y-053500
X051250Y-054500
X051250Y-055500
X051250Y-056500
X072000Y-042000
X072000Y-043000
X072000Y-044000
X072000Y-045000
X072000Y-046000
X072000Y-047000
X072000Y-048000
X072000Y-049000
X072000Y-051500
X072000Y-052500
X072000Y-053500
X072000Y-054500
X072000Y-055500
X072000Y-056500
X072000Y-057500
X072000Y-058500
X073000Y-042000
X073000Y-043000
X073000Y-044000
X073000Y-045000
X073000Y-046000
X073000Y-047000
X073000Y-048000
X073000Y-049000
X073000Y-051500
X073000Y-052500
X073000Y-053500
X073000Y-054500
X073000Y-055500
X073000Y-056500
X073000Y-057500
X073000Y-058500
X074000Y-042000
X074000Y-043000
X074000Y-044000
X074000Y-045000
X074000Y-046000
X074000Y-047000
X074000Y-048000
X074000Y-049000
X074000Y-051500
X074000Y-052500
X074000Y-053500
X074000Y-054500
X074000Y-055500
X074000Y-056500
X074000Y-057500
X074000Y-058500
T5
X059500Y-041250
X059500Y-042250
X059500Y-043250
T6
X046750Y-042750
X046750Y-044750
X046750Y-049750
X046750Y-051750
X046750Y-053750
T7
X045000Y-058000
X076000Y-038000
T0
M30
