G04 #@! TF.FileFunction,Copper,L2,Bot,Signal*
%FSLAX46Y46*%
G04 Gerber Fmt 4.6, Leading zero omitted, Abs format (unit mm)*
G04 Created by KiCad (PCBNEW (2015-04-09 BZR 5589)-product) date Sunday, April 12, 2015 'PMt' 01:39:24 PM*
%MOMM*%
G01*
G04 APERTURE LIST*
%ADD10C,0.150000*%
%ADD11C,1.501140*%
%ADD12R,2.032000X1.727200*%
%ADD13O,2.032000X1.727200*%
%ADD14R,2.540000X2.540000*%
%ADD15C,2.540000*%
%ADD16R,1.397000X1.397000*%
%ADD17C,1.397000*%
%ADD18C,1.778000*%
%ADD19R,1.778000X1.778000*%
%ADD20C,1.016000*%
%ADD21C,1.270000*%
%ADD22C,0.304800*%
%ADD23C,0.635000*%
%ADD24C,2.540000*%
G04 APERTURE END LIST*
D10*
D11*
X174625000Y-100330000D03*
X169545000Y-100330000D03*
X147320000Y-102235000D03*
X147320000Y-99695000D03*
D12*
X182880000Y-106680000D03*
D13*
X182880000Y-109220000D03*
X182880000Y-111760000D03*
X182880000Y-114300000D03*
X182880000Y-116840000D03*
X182880000Y-119380000D03*
X182880000Y-121920000D03*
X182880000Y-124460000D03*
D12*
X187960000Y-106680000D03*
D13*
X187960000Y-109220000D03*
X187960000Y-111760000D03*
X187960000Y-114300000D03*
X187960000Y-116840000D03*
X187960000Y-119380000D03*
X187960000Y-121920000D03*
X187960000Y-124460000D03*
D12*
X185420000Y-106680000D03*
D13*
X185420000Y-109220000D03*
X185420000Y-111760000D03*
X185420000Y-114300000D03*
X185420000Y-116840000D03*
X185420000Y-119380000D03*
X185420000Y-121920000D03*
X185420000Y-124460000D03*
D12*
X182880000Y-130810000D03*
D13*
X182880000Y-133350000D03*
X182880000Y-135890000D03*
X182880000Y-138430000D03*
X182880000Y-140970000D03*
X182880000Y-143510000D03*
X182880000Y-146050000D03*
X182880000Y-148590000D03*
D12*
X187960000Y-130810000D03*
D13*
X187960000Y-133350000D03*
X187960000Y-135890000D03*
X187960000Y-138430000D03*
X187960000Y-140970000D03*
X187960000Y-143510000D03*
X187960000Y-146050000D03*
X187960000Y-148590000D03*
D12*
X185420000Y-130810000D03*
D13*
X185420000Y-133350000D03*
X185420000Y-135890000D03*
X185420000Y-138430000D03*
X185420000Y-140970000D03*
X185420000Y-143510000D03*
X185420000Y-146050000D03*
X185420000Y-148590000D03*
D12*
X130175000Y-133350000D03*
D13*
X130175000Y-135890000D03*
X130175000Y-138430000D03*
X130175000Y-140970000D03*
X130175000Y-143510000D03*
D14*
X118745000Y-126365000D03*
D15*
X118745000Y-131445000D03*
X118745000Y-136525000D03*
D14*
X118745000Y-108585000D03*
D15*
X118745000Y-113665000D03*
D16*
X142240000Y-125730000D03*
D17*
X142240000Y-128270000D03*
X142240000Y-130810000D03*
X142240000Y-133350000D03*
X142240000Y-135890000D03*
X142240000Y-138430000D03*
X142240000Y-140970000D03*
X142240000Y-143510000D03*
X142240000Y-146050000D03*
X149860000Y-146050000D03*
X149860000Y-143510000D03*
X149860000Y-140970000D03*
X149860000Y-138430000D03*
X149860000Y-135890000D03*
X149860000Y-133350000D03*
X149860000Y-130810000D03*
X149860000Y-128270000D03*
X149860000Y-125730000D03*
D16*
X156845000Y-104140000D03*
D17*
X156845000Y-106680000D03*
X156845000Y-109220000D03*
X156845000Y-111760000D03*
X156845000Y-114300000D03*
X156845000Y-116840000D03*
X156845000Y-119380000D03*
X156845000Y-121920000D03*
X164465000Y-121920000D03*
X164465000Y-119380000D03*
X164465000Y-116840000D03*
X164465000Y-114300000D03*
X164465000Y-111760000D03*
X164465000Y-109220000D03*
X164465000Y-106680000D03*
X164465000Y-104140000D03*
D16*
X156845000Y-128270000D03*
D17*
X156845000Y-130810000D03*
X156845000Y-133350000D03*
X156845000Y-135890000D03*
X156845000Y-138430000D03*
X156845000Y-140970000D03*
X156845000Y-143510000D03*
X156845000Y-146050000D03*
X164465000Y-146050000D03*
X164465000Y-143510000D03*
X164465000Y-140970000D03*
X164465000Y-138430000D03*
X164465000Y-135890000D03*
X164465000Y-133350000D03*
X164465000Y-130810000D03*
X164465000Y-128270000D03*
D18*
X151130000Y-104775000D03*
D19*
X151130000Y-107315000D03*
D18*
X151130000Y-109855000D03*
D20*
X149225000Y-121920000D03*
X151765000Y-123825000D03*
X139065000Y-106045000D03*
X139065000Y-113665000D03*
X140335000Y-121285000D03*
X144145000Y-123190000D03*
X146685000Y-135255000D03*
X160655000Y-109220000D03*
X161925000Y-126365000D03*
X161290000Y-114300000D03*
X160655000Y-147320000D03*
X161290000Y-116840000D03*
X160020000Y-106680000D03*
D21*
X151130000Y-107315000D02*
X149860000Y-107315000D01*
X149225000Y-107950000D02*
X149225000Y-121920000D01*
X149860000Y-107315000D02*
X149225000Y-107950000D01*
D22*
X156845000Y-135890000D02*
X154940000Y-135890000D01*
X156845000Y-121920000D02*
X156210000Y-121920000D01*
X156210000Y-121920000D02*
X154940000Y-120650000D01*
X155575000Y-111760000D02*
X156845000Y-111760000D01*
X154940000Y-112395000D02*
X155575000Y-111760000D01*
X154940000Y-120650000D02*
X154940000Y-112395000D01*
D21*
X187960000Y-148590000D02*
X187960000Y-146050000D01*
X187960000Y-146050000D02*
X187960000Y-143510000D01*
X187960000Y-143510000D02*
X187960000Y-140970000D01*
X187960000Y-140970000D02*
X187960000Y-138430000D01*
X187960000Y-138430000D02*
X187960000Y-135890000D01*
X187960000Y-135890000D02*
X187960000Y-133350000D01*
X187960000Y-133350000D02*
X187960000Y-130810000D01*
X187960000Y-124460000D02*
X187960000Y-121920000D01*
X187960000Y-121920000D02*
X187960000Y-119380000D01*
X187960000Y-119380000D02*
X187960000Y-116840000D01*
X187960000Y-116840000D02*
X187960000Y-114300000D01*
X187960000Y-114300000D02*
X187960000Y-111760000D01*
X187960000Y-111760000D02*
X187960000Y-109220000D01*
X187960000Y-109220000D02*
X187960000Y-106680000D01*
X135890000Y-102235000D02*
X124460000Y-113665000D01*
X124460000Y-113665000D02*
X118745000Y-113665000D01*
X147320000Y-102235000D02*
X135890000Y-102235000D01*
D23*
X155575000Y-146050000D02*
X154940000Y-145415000D01*
X154940000Y-145415000D02*
X154940000Y-135890000D01*
X154940000Y-135890000D02*
X154940000Y-122555000D01*
X155575000Y-121920000D02*
X156845000Y-121920000D01*
X154940000Y-122555000D02*
X155575000Y-121920000D01*
X156845000Y-146050000D02*
X155575000Y-146050000D01*
D24*
X184150000Y-100330000D02*
X174625000Y-100330000D01*
D21*
X187960000Y-104140000D02*
X184150000Y-100330000D01*
X187960000Y-106680000D02*
X187960000Y-104140000D01*
X189230000Y-130810000D02*
X190500000Y-129540000D01*
X190500000Y-129540000D02*
X190500000Y-103505000D01*
X190500000Y-103505000D02*
X187325000Y-100330000D01*
X187325000Y-100330000D02*
X184150000Y-100330000D01*
X187960000Y-130810000D02*
X189230000Y-130810000D01*
X185420000Y-148590000D02*
X185420000Y-146050000D01*
X185420000Y-146050000D02*
X185420000Y-143510000D01*
X185420000Y-143510000D02*
X185420000Y-140970000D01*
X185420000Y-140970000D02*
X185420000Y-138430000D01*
X185420000Y-138430000D02*
X185420000Y-135890000D01*
X185420000Y-135890000D02*
X185420000Y-133350000D01*
X185420000Y-133350000D02*
X185420000Y-130810000D01*
X185420000Y-124460000D02*
X185420000Y-121920000D01*
X185420000Y-121920000D02*
X185420000Y-119380000D01*
X185420000Y-119380000D02*
X185420000Y-116840000D01*
X185420000Y-116840000D02*
X185420000Y-114300000D01*
X185420000Y-114300000D02*
X185420000Y-111760000D01*
X185420000Y-111760000D02*
X185420000Y-109220000D01*
X185420000Y-109220000D02*
X185420000Y-106680000D01*
D24*
X179070000Y-104140000D02*
X173355000Y-104140000D01*
X173355000Y-104140000D02*
X169545000Y-100330000D01*
D21*
X184150000Y-104140000D02*
X179070000Y-104140000D01*
X185420000Y-105410000D02*
X184150000Y-104140000D01*
X185420000Y-106680000D02*
X185420000Y-105410000D01*
X179070000Y-104775000D02*
X179070000Y-104140000D01*
X179070000Y-104140000D02*
X179070000Y-104775000D01*
X185420000Y-128905000D02*
X184150000Y-127635000D01*
X184150000Y-127635000D02*
X180340000Y-127635000D01*
X180340000Y-127635000D02*
X179070000Y-126365000D01*
X179070000Y-126365000D02*
X179070000Y-104140000D01*
X185420000Y-130810000D02*
X185420000Y-128905000D01*
D24*
X164465000Y-100330000D02*
X161290000Y-97155000D01*
X161290000Y-97155000D02*
X126365000Y-97155000D01*
X126365000Y-97155000D02*
X118745000Y-104775000D01*
X118745000Y-104775000D02*
X118745000Y-108585000D01*
X169545000Y-100330000D02*
X164465000Y-100330000D01*
D23*
X151130000Y-135890000D02*
X151765000Y-135890000D01*
X151765000Y-135255000D02*
X151765000Y-135890000D01*
X151765000Y-135255000D02*
X151765000Y-123825000D01*
X151765000Y-135890000D02*
X151765000Y-147320000D01*
X151765000Y-147320000D02*
X151130000Y-147955000D01*
X151130000Y-147955000D02*
X127000000Y-147955000D01*
X127000000Y-147955000D02*
X125730000Y-146685000D01*
X125730000Y-146685000D02*
X125730000Y-136525000D01*
X125730000Y-136525000D02*
X126365000Y-135890000D01*
X126365000Y-135890000D02*
X130175000Y-135890000D01*
X165735000Y-128270000D02*
X166370000Y-127635000D01*
X166370000Y-127635000D02*
X166370000Y-104775000D01*
X166370000Y-104775000D02*
X165735000Y-104140000D01*
X165735000Y-104140000D02*
X164465000Y-104140000D01*
X164465000Y-128270000D02*
X165735000Y-128270000D01*
X160655000Y-104140000D02*
X158750000Y-102235000D01*
X158750000Y-102235000D02*
X155575000Y-102235000D01*
X155575000Y-102235000D02*
X154305000Y-103505000D01*
X154305000Y-103505000D02*
X154305000Y-108585000D01*
X154305000Y-108585000D02*
X153035000Y-109855000D01*
X153035000Y-109855000D02*
X151130000Y-109855000D01*
X164465000Y-104140000D02*
X160655000Y-104140000D01*
X151765000Y-123825000D02*
X151765000Y-122555000D01*
X152400000Y-111125000D02*
X151130000Y-109855000D01*
X152400000Y-121920000D02*
X152400000Y-111125000D01*
X151765000Y-122555000D02*
X152400000Y-121920000D01*
X149860000Y-135890000D02*
X151130000Y-135890000D01*
D22*
X148590000Y-143510000D02*
X147955000Y-142875000D01*
X147955000Y-142875000D02*
X147955000Y-111760000D01*
X147955000Y-111760000D02*
X142240000Y-106045000D01*
X142240000Y-106045000D02*
X139065000Y-106045000D01*
X149860000Y-143510000D02*
X148590000Y-143510000D01*
X140335000Y-143510000D02*
X139700000Y-142875000D01*
X139700000Y-142875000D02*
X139700000Y-123190000D01*
X139700000Y-123190000D02*
X139065000Y-122555000D01*
X139065000Y-122555000D02*
X139065000Y-113665000D01*
X142240000Y-143510000D02*
X140335000Y-143510000D01*
X140970000Y-138430000D02*
X140335000Y-137795000D01*
X140335000Y-137795000D02*
X140335000Y-121285000D01*
X142240000Y-138430000D02*
X140970000Y-138430000D01*
X144145000Y-123190000D02*
X144145000Y-124460000D01*
X144145000Y-124460000D02*
X144145000Y-140335000D01*
X144145000Y-140335000D02*
X143510000Y-140970000D01*
X143510000Y-140970000D02*
X142240000Y-140970000D01*
X146685000Y-135255000D02*
X146685000Y-145415000D01*
X146685000Y-145415000D02*
X147320000Y-146050000D01*
X147320000Y-146050000D02*
X149860000Y-146050000D01*
X159385000Y-133350000D02*
X160020000Y-132715000D01*
X160020000Y-132715000D02*
X160020000Y-109855000D01*
X160020000Y-109855000D02*
X160655000Y-109220000D01*
X156845000Y-133350000D02*
X159385000Y-133350000D01*
X161290000Y-125730000D02*
X161925000Y-126365000D01*
X161290000Y-118745000D02*
X161290000Y-125730000D01*
X162560000Y-117475000D02*
X161290000Y-118745000D01*
X162560000Y-115570000D02*
X162560000Y-117475000D01*
X161290000Y-114300000D02*
X162560000Y-115570000D01*
X160655000Y-117475000D02*
X160655000Y-147320000D01*
X161290000Y-116840000D02*
X160655000Y-117475000D01*
X158115000Y-128270000D02*
X158750000Y-127635000D01*
X158750000Y-127635000D02*
X158750000Y-104775000D01*
X158750000Y-104775000D02*
X158115000Y-104140000D01*
X158115000Y-104140000D02*
X156845000Y-104140000D01*
X156845000Y-128270000D02*
X158115000Y-128270000D01*
X158750000Y-130810000D02*
X159385000Y-130175000D01*
X159385000Y-130175000D02*
X159385000Y-107315000D01*
X159385000Y-107315000D02*
X160020000Y-106680000D01*
X156845000Y-130810000D02*
X158750000Y-130810000D01*
M02*
