G04 #@! TF.FileFunction,Legend,Top*
%FSLAX46Y46*%
G04 Gerber Fmt 4.6, Leading zero omitted, Abs format (unit mm)*
G04 Created by KiCad (PCBNEW (2015-04-09 BZR 5589)-product) date Sunday, April 12, 2015 'PMt' 01:39:24 PM*
%MOMM*%
G01*
G04 APERTURE LIST*
%ADD10C,0.150000*%
%ADD11C,0.300000*%
G04 APERTURE END LIST*
D10*
D11*
X109898571Y-131004285D02*
X108398571Y-131004285D01*
X108541429Y-130361428D02*
X108470000Y-130289999D01*
X108398571Y-130147142D01*
X108398571Y-129789999D01*
X108470000Y-129647142D01*
X108541429Y-129575713D01*
X108684286Y-129504285D01*
X108827143Y-129504285D01*
X109041429Y-129575713D01*
X109898571Y-130432856D01*
X109898571Y-129504285D01*
X109755714Y-128004285D02*
X109827143Y-128075714D01*
X109898571Y-128290000D01*
X109898571Y-128432857D01*
X109827143Y-128647142D01*
X109684286Y-128790000D01*
X109541429Y-128861428D01*
X109255714Y-128932857D01*
X109041429Y-128932857D01*
X108755714Y-128861428D01*
X108612857Y-128790000D01*
X108470000Y-128647142D01*
X108398571Y-128432857D01*
X108398571Y-128290000D01*
X108470000Y-128075714D01*
X108541429Y-128004285D01*
X108077143Y-113550000D02*
X107934286Y-113478571D01*
X107720000Y-113478571D01*
X107505715Y-113550000D01*
X107362857Y-113692857D01*
X107291429Y-113835714D01*
X107220000Y-114121429D01*
X107220000Y-114335714D01*
X107291429Y-114621429D01*
X107362857Y-114764286D01*
X107505715Y-114907143D01*
X107720000Y-114978571D01*
X107862857Y-114978571D01*
X108077143Y-114907143D01*
X108148572Y-114835714D01*
X108148572Y-114335714D01*
X107862857Y-114335714D01*
X108791429Y-114978571D02*
X108791429Y-113478571D01*
X109648572Y-114978571D01*
X109648572Y-113478571D01*
X110362858Y-114978571D02*
X110362858Y-113478571D01*
X110720001Y-113478571D01*
X110934286Y-113550000D01*
X111077144Y-113692857D01*
X111148572Y-113835714D01*
X111220001Y-114121429D01*
X111220001Y-114335714D01*
X111148572Y-114621429D01*
X111077144Y-114764286D01*
X110934286Y-114907143D01*
X110720001Y-114978571D01*
X110362858Y-114978571D01*
X107291429Y-109327143D02*
X108434286Y-109327143D01*
X107862857Y-109898571D02*
X107862857Y-108755714D01*
X109791429Y-108398571D02*
X109505715Y-108398571D01*
X109362858Y-108470000D01*
X109291429Y-108541429D01*
X109148572Y-108755714D01*
X109077143Y-109041429D01*
X109077143Y-109612857D01*
X109148572Y-109755714D01*
X109220000Y-109827143D01*
X109362858Y-109898571D01*
X109648572Y-109898571D01*
X109791429Y-109827143D01*
X109862858Y-109755714D01*
X109934286Y-109612857D01*
X109934286Y-109255714D01*
X109862858Y-109112857D01*
X109791429Y-109041429D01*
X109648572Y-108970000D01*
X109362858Y-108970000D01*
X109220000Y-109041429D01*
X109148572Y-109112857D01*
X109077143Y-109255714D01*
X110362857Y-108398571D02*
X110862857Y-109898571D01*
X111362857Y-108398571D01*
X126557143Y-151578571D02*
X126842857Y-151578571D01*
X126985715Y-151650000D01*
X127128572Y-151792857D01*
X127200000Y-152078571D01*
X127200000Y-152578571D01*
X127128572Y-152864286D01*
X126985715Y-153007143D01*
X126842857Y-153078571D01*
X126557143Y-153078571D01*
X126414286Y-153007143D01*
X126271429Y-152864286D01*
X126200000Y-152578571D01*
X126200000Y-152078571D01*
X126271429Y-151792857D01*
X126414286Y-151650000D01*
X126557143Y-151578571D01*
X127700001Y-153078571D02*
X128485715Y-152078571D01*
X127700001Y-152078571D02*
X128485715Y-153078571D01*
X128842858Y-152078571D02*
X129414287Y-152078571D01*
X129057144Y-153078571D02*
X129057144Y-151792857D01*
X129128572Y-151650000D01*
X129271430Y-151578571D01*
X129414287Y-151578571D01*
X130128573Y-153078571D02*
X129985715Y-153007143D01*
X129914287Y-152935714D01*
X129842858Y-152792857D01*
X129842858Y-152364286D01*
X129914287Y-152221429D01*
X129985715Y-152150000D01*
X130128573Y-152078571D01*
X130342858Y-152078571D01*
X130485715Y-152150000D01*
X130557144Y-152221429D01*
X130628573Y-152364286D01*
X130628573Y-152792857D01*
X130557144Y-152935714D01*
X130485715Y-153007143D01*
X130342858Y-153078571D01*
X130128573Y-153078571D01*
X131271430Y-153078571D02*
X131271430Y-152078571D01*
X131271430Y-152364286D02*
X131342858Y-152221429D01*
X131414287Y-152150000D01*
X131557144Y-152078571D01*
X131700001Y-152078571D01*
X132842858Y-153078571D02*
X132842858Y-151578571D01*
X132842858Y-153007143D02*
X132700001Y-153078571D01*
X132414287Y-153078571D01*
X132271429Y-153007143D01*
X132200001Y-152935714D01*
X132128572Y-152792857D01*
X132128572Y-152364286D01*
X132200001Y-152221429D01*
X132271429Y-152150000D01*
X132414287Y-152078571D01*
X132700001Y-152078571D01*
X132842858Y-152150000D01*
X134485715Y-151578571D02*
X134985715Y-153078571D01*
X135485715Y-151578571D01*
X135985715Y-152935714D02*
X136057143Y-153007143D01*
X135985715Y-153078571D01*
X135914286Y-153007143D01*
X135985715Y-152935714D01*
X135985715Y-153078571D01*
X136700001Y-151578571D02*
X136700001Y-152792857D01*
X136771429Y-152935714D01*
X136842858Y-153007143D01*
X136985715Y-153078571D01*
X137271429Y-153078571D01*
X137414287Y-153007143D01*
X137485715Y-152935714D01*
X137557144Y-152792857D01*
X137557144Y-151578571D01*
X138271430Y-152935714D02*
X138342858Y-153007143D01*
X138271430Y-153078571D01*
X138200001Y-153007143D01*
X138271430Y-152935714D01*
X138271430Y-153078571D01*
X138985716Y-152292857D02*
X139485716Y-152292857D01*
X139700002Y-153078571D02*
X138985716Y-153078571D01*
X138985716Y-151578571D01*
X139700002Y-151578571D01*
X140342859Y-152935714D02*
X140414287Y-153007143D01*
X140342859Y-153078571D01*
X140271430Y-153007143D01*
X140342859Y-152935714D01*
X140342859Y-153078571D01*
X141128573Y-153007143D02*
X141128573Y-153078571D01*
X141057145Y-153221429D01*
X140985716Y-153292857D01*
X142914288Y-153078571D02*
X142914288Y-151578571D01*
X143628574Y-152078571D02*
X143628574Y-153078571D01*
X143628574Y-152221429D02*
X143700002Y-152150000D01*
X143842860Y-152078571D01*
X144057145Y-152078571D01*
X144200002Y-152150000D01*
X144271431Y-152292857D01*
X144271431Y-153078571D01*
X145628574Y-153007143D02*
X145485717Y-153078571D01*
X145200003Y-153078571D01*
X145057145Y-153007143D01*
X144985717Y-152935714D01*
X144914288Y-152792857D01*
X144914288Y-152364286D01*
X144985717Y-152221429D01*
X145057145Y-152150000D01*
X145200003Y-152078571D01*
X145485717Y-152078571D01*
X145628574Y-152150000D01*
X146271431Y-152935714D02*
X146342859Y-153007143D01*
X146271431Y-153078571D01*
X146200002Y-153007143D01*
X146271431Y-152935714D01*
X146271431Y-153078571D01*
X148057145Y-151721429D02*
X148128574Y-151650000D01*
X148271431Y-151578571D01*
X148628574Y-151578571D01*
X148771431Y-151650000D01*
X148842860Y-151721429D01*
X148914288Y-151864286D01*
X148914288Y-152007143D01*
X148842860Y-152221429D01*
X147985717Y-153078571D01*
X148914288Y-153078571D01*
X149842859Y-151578571D02*
X149985716Y-151578571D01*
X150128573Y-151650000D01*
X150200002Y-151721429D01*
X150271431Y-151864286D01*
X150342859Y-152150000D01*
X150342859Y-152507143D01*
X150271431Y-152792857D01*
X150200002Y-152935714D01*
X150128573Y-153007143D01*
X149985716Y-153078571D01*
X149842859Y-153078571D01*
X149700002Y-153007143D01*
X149628573Y-152935714D01*
X149557145Y-152792857D01*
X149485716Y-152507143D01*
X149485716Y-152150000D01*
X149557145Y-151864286D01*
X149628573Y-151721429D01*
X149700002Y-151650000D01*
X149842859Y-151578571D01*
X151771430Y-153078571D02*
X150914287Y-153078571D01*
X151342859Y-153078571D02*
X151342859Y-151578571D01*
X151200002Y-151792857D01*
X151057144Y-151935714D01*
X150914287Y-152007143D01*
X153128573Y-151578571D02*
X152414287Y-151578571D01*
X152342858Y-152292857D01*
X152414287Y-152221429D01*
X152557144Y-152150000D01*
X152914287Y-152150000D01*
X153057144Y-152221429D01*
X153128573Y-152292857D01*
X153200001Y-152435714D01*
X153200001Y-152792857D01*
X153128573Y-152935714D01*
X153057144Y-153007143D01*
X152914287Y-153078571D01*
X152557144Y-153078571D01*
X152414287Y-153007143D01*
X152342858Y-152935714D01*
X113714287Y-94587143D02*
X113928573Y-94658571D01*
X114285716Y-94658571D01*
X114428573Y-94587143D01*
X114500002Y-94515714D01*
X114571430Y-94372857D01*
X114571430Y-94230000D01*
X114500002Y-94087143D01*
X114428573Y-94015714D01*
X114285716Y-93944286D01*
X114000002Y-93872857D01*
X113857144Y-93801429D01*
X113785716Y-93730000D01*
X113714287Y-93587143D01*
X113714287Y-93444286D01*
X113785716Y-93301429D01*
X113857144Y-93230000D01*
X114000002Y-93158571D01*
X114357144Y-93158571D01*
X114571430Y-93230000D01*
X115214287Y-94658571D02*
X115214287Y-93658571D01*
X115214287Y-93158571D02*
X115142858Y-93230000D01*
X115214287Y-93301429D01*
X115285715Y-93230000D01*
X115214287Y-93158571D01*
X115214287Y-93301429D01*
X115928573Y-94658571D02*
X115928573Y-93658571D01*
X115928573Y-93801429D02*
X116000001Y-93730000D01*
X116142859Y-93658571D01*
X116357144Y-93658571D01*
X116500001Y-93730000D01*
X116571430Y-93872857D01*
X116571430Y-94658571D01*
X116571430Y-93872857D02*
X116642859Y-93730000D01*
X116785716Y-93658571D01*
X117000001Y-93658571D01*
X117142859Y-93730000D01*
X117214287Y-93872857D01*
X117214287Y-94658571D01*
X117928573Y-93658571D02*
X117928573Y-95158571D01*
X117928573Y-93730000D02*
X118071430Y-93658571D01*
X118357144Y-93658571D01*
X118500001Y-93730000D01*
X118571430Y-93801429D01*
X118642859Y-93944286D01*
X118642859Y-94372857D01*
X118571430Y-94515714D01*
X118500001Y-94587143D01*
X118357144Y-94658571D01*
X118071430Y-94658571D01*
X117928573Y-94587143D01*
X119500002Y-94658571D02*
X119357144Y-94587143D01*
X119285716Y-94444286D01*
X119285716Y-93158571D01*
X120642858Y-94587143D02*
X120500001Y-94658571D01*
X120214287Y-94658571D01*
X120071430Y-94587143D01*
X120000001Y-94444286D01*
X120000001Y-93872857D01*
X120071430Y-93730000D01*
X120214287Y-93658571D01*
X120500001Y-93658571D01*
X120642858Y-93730000D01*
X120714287Y-93872857D01*
X120714287Y-94015714D01*
X120000001Y-94158571D01*
X122428572Y-94587143D02*
X122642858Y-94658571D01*
X123000001Y-94658571D01*
X123142858Y-94587143D01*
X123214287Y-94515714D01*
X123285715Y-94372857D01*
X123285715Y-94230000D01*
X123214287Y-94087143D01*
X123142858Y-94015714D01*
X123000001Y-93944286D01*
X122714287Y-93872857D01*
X122571429Y-93801429D01*
X122500001Y-93730000D01*
X122428572Y-93587143D01*
X122428572Y-93444286D01*
X122500001Y-93301429D01*
X122571429Y-93230000D01*
X122714287Y-93158571D01*
X123071429Y-93158571D01*
X123285715Y-93230000D01*
X124500000Y-94587143D02*
X124357143Y-94658571D01*
X124071429Y-94658571D01*
X123928572Y-94587143D01*
X123857143Y-94444286D01*
X123857143Y-93872857D01*
X123928572Y-93730000D01*
X124071429Y-93658571D01*
X124357143Y-93658571D01*
X124500000Y-93730000D01*
X124571429Y-93872857D01*
X124571429Y-94015714D01*
X123857143Y-94158571D01*
X125214286Y-94658571D02*
X125214286Y-93658571D01*
X125214286Y-93944286D02*
X125285714Y-93801429D01*
X125357143Y-93730000D01*
X125500000Y-93658571D01*
X125642857Y-93658571D01*
X126000000Y-93658571D02*
X126357143Y-94658571D01*
X126714285Y-93658571D01*
X127500000Y-94658571D02*
X127357142Y-94587143D01*
X127285714Y-94515714D01*
X127214285Y-94372857D01*
X127214285Y-93944286D01*
X127285714Y-93801429D01*
X127357142Y-93730000D01*
X127500000Y-93658571D01*
X127714285Y-93658571D01*
X127857142Y-93730000D01*
X127928571Y-93801429D01*
X128000000Y-93944286D01*
X128000000Y-94372857D01*
X127928571Y-94515714D01*
X127857142Y-94587143D01*
X127714285Y-94658571D01*
X127500000Y-94658571D01*
X130642857Y-94515714D02*
X130571428Y-94587143D01*
X130357142Y-94658571D01*
X130214285Y-94658571D01*
X130000000Y-94587143D01*
X129857142Y-94444286D01*
X129785714Y-94301429D01*
X129714285Y-94015714D01*
X129714285Y-93801429D01*
X129785714Y-93515714D01*
X129857142Y-93372857D01*
X130000000Y-93230000D01*
X130214285Y-93158571D01*
X130357142Y-93158571D01*
X130571428Y-93230000D01*
X130642857Y-93301429D01*
X131500000Y-94658571D02*
X131357142Y-94587143D01*
X131285714Y-94515714D01*
X131214285Y-94372857D01*
X131214285Y-93944286D01*
X131285714Y-93801429D01*
X131357142Y-93730000D01*
X131500000Y-93658571D01*
X131714285Y-93658571D01*
X131857142Y-93730000D01*
X131928571Y-93801429D01*
X132000000Y-93944286D01*
X132000000Y-94372857D01*
X131928571Y-94515714D01*
X131857142Y-94587143D01*
X131714285Y-94658571D01*
X131500000Y-94658571D01*
X132642857Y-93658571D02*
X132642857Y-94658571D01*
X132642857Y-93801429D02*
X132714285Y-93730000D01*
X132857143Y-93658571D01*
X133071428Y-93658571D01*
X133214285Y-93730000D01*
X133285714Y-93872857D01*
X133285714Y-94658571D01*
X133785714Y-93658571D02*
X134357143Y-93658571D01*
X134000000Y-93158571D02*
X134000000Y-94444286D01*
X134071428Y-94587143D01*
X134214286Y-94658571D01*
X134357143Y-94658571D01*
X134857143Y-94658571D02*
X134857143Y-93658571D01*
X134857143Y-93944286D02*
X134928571Y-93801429D01*
X135000000Y-93730000D01*
X135142857Y-93658571D01*
X135285714Y-93658571D01*
X136000000Y-94658571D02*
X135857142Y-94587143D01*
X135785714Y-94515714D01*
X135714285Y-94372857D01*
X135714285Y-93944286D01*
X135785714Y-93801429D01*
X135857142Y-93730000D01*
X136000000Y-93658571D01*
X136214285Y-93658571D01*
X136357142Y-93730000D01*
X136428571Y-93801429D01*
X136500000Y-93944286D01*
X136500000Y-94372857D01*
X136428571Y-94515714D01*
X136357142Y-94587143D01*
X136214285Y-94658571D01*
X136000000Y-94658571D01*
X137357143Y-94658571D02*
X137214285Y-94587143D01*
X137142857Y-94444286D01*
X137142857Y-93158571D01*
X138142857Y-94658571D02*
X137999999Y-94587143D01*
X137928571Y-94444286D01*
X137928571Y-93158571D01*
X139285713Y-94587143D02*
X139142856Y-94658571D01*
X138857142Y-94658571D01*
X138714285Y-94587143D01*
X138642856Y-94444286D01*
X138642856Y-93872857D01*
X138714285Y-93730000D01*
X138857142Y-93658571D01*
X139142856Y-93658571D01*
X139285713Y-93730000D01*
X139357142Y-93872857D01*
X139357142Y-94015714D01*
X138642856Y-94158571D01*
X139999999Y-94658571D02*
X139999999Y-93658571D01*
X139999999Y-93944286D02*
X140071427Y-93801429D01*
X140142856Y-93730000D01*
X140285713Y-93658571D01*
X140428570Y-93658571D01*
D10*
X169545000Y-97282000D02*
X169545000Y-98298000D01*
X169037000Y-97790000D02*
X170053000Y-97790000D01*
X177165000Y-100330000D02*
G75*
G03X177165000Y-100330000I-5080000J0D01*
G01*
X148844000Y-100965000D02*
X148844000Y-99898200D01*
X149352000Y-100457000D02*
X148310600Y-100457000D01*
X149860000Y-100965000D02*
G75*
G03X149860000Y-100965000I-2540000J0D01*
G01*
X167140000Y-125945000D02*
X168140000Y-125945000D01*
X168140000Y-124245000D02*
X167140000Y-124245000D01*
X153455000Y-108085000D02*
X153455000Y-109085000D01*
X155155000Y-109085000D02*
X155155000Y-108085000D01*
X140434060Y-104040940D02*
X140235940Y-104040940D01*
X140235940Y-104040940D02*
X140235940Y-104239060D01*
X140434060Y-104239060D02*
X140235940Y-104239060D01*
X140434060Y-104040940D02*
X140434060Y-104239060D01*
X139885420Y-103441500D02*
X139537440Y-103441500D01*
X139537440Y-103441500D02*
X139537440Y-103690420D01*
X139885420Y-103690420D02*
X139537440Y-103690420D01*
X139885420Y-103441500D02*
X139885420Y-103690420D01*
X139537440Y-103441500D02*
X139435840Y-103441500D01*
X139435840Y-103441500D02*
X139435840Y-104637840D01*
X139537440Y-104637840D02*
X139435840Y-104637840D01*
X139537440Y-103441500D02*
X139537440Y-104637840D01*
X139537440Y-104688640D02*
X139435840Y-104688640D01*
X139435840Y-104688640D02*
X139435840Y-104838500D01*
X139537440Y-104838500D02*
X139435840Y-104838500D01*
X139537440Y-104688640D02*
X139537440Y-104838500D01*
X141234160Y-103441500D02*
X141132560Y-103441500D01*
X141132560Y-103441500D02*
X141132560Y-104637840D01*
X141234160Y-104637840D02*
X141132560Y-104637840D01*
X141234160Y-103441500D02*
X141234160Y-104637840D01*
X141234160Y-104688640D02*
X141132560Y-104688640D01*
X141132560Y-104688640D02*
X141132560Y-104838500D01*
X141234160Y-104838500D02*
X141132560Y-104838500D01*
X141234160Y-104688640D02*
X141234160Y-104838500D01*
X139885420Y-103441500D02*
X139735560Y-103441500D01*
X139735560Y-103441500D02*
X139735560Y-103690420D01*
X139885420Y-103690420D02*
X139735560Y-103690420D01*
X139885420Y-103441500D02*
X139885420Y-103690420D01*
X138785600Y-103390700D02*
X141884400Y-103390700D01*
X141884400Y-103390700D02*
X141884400Y-104889300D01*
X141884400Y-104889300D02*
X138785600Y-104889300D01*
X138785600Y-104889300D02*
X138785600Y-103390700D01*
X140882262Y-103640646D02*
G75*
G03X139786360Y-103642160I-547262J-499354D01*
G01*
X140883133Y-104638398D02*
G75*
G03X140883640Y-103642160I-548133J498398D01*
G01*
X139787738Y-104639354D02*
G75*
G03X140883640Y-104637840I547262J499354D01*
G01*
X139786867Y-103641602D02*
G75*
G03X139786360Y-104637840I548133J-498398D01*
G01*
X140434060Y-111660940D02*
X140235940Y-111660940D01*
X140235940Y-111660940D02*
X140235940Y-111859060D01*
X140434060Y-111859060D02*
X140235940Y-111859060D01*
X140434060Y-111660940D02*
X140434060Y-111859060D01*
X139885420Y-111061500D02*
X139537440Y-111061500D01*
X139537440Y-111061500D02*
X139537440Y-111310420D01*
X139885420Y-111310420D02*
X139537440Y-111310420D01*
X139885420Y-111061500D02*
X139885420Y-111310420D01*
X139537440Y-111061500D02*
X139435840Y-111061500D01*
X139435840Y-111061500D02*
X139435840Y-112257840D01*
X139537440Y-112257840D02*
X139435840Y-112257840D01*
X139537440Y-111061500D02*
X139537440Y-112257840D01*
X139537440Y-112308640D02*
X139435840Y-112308640D01*
X139435840Y-112308640D02*
X139435840Y-112458500D01*
X139537440Y-112458500D02*
X139435840Y-112458500D01*
X139537440Y-112308640D02*
X139537440Y-112458500D01*
X141234160Y-111061500D02*
X141132560Y-111061500D01*
X141132560Y-111061500D02*
X141132560Y-112257840D01*
X141234160Y-112257840D02*
X141132560Y-112257840D01*
X141234160Y-111061500D02*
X141234160Y-112257840D01*
X141234160Y-112308640D02*
X141132560Y-112308640D01*
X141132560Y-112308640D02*
X141132560Y-112458500D01*
X141234160Y-112458500D02*
X141132560Y-112458500D01*
X141234160Y-112308640D02*
X141234160Y-112458500D01*
X139885420Y-111061500D02*
X139735560Y-111061500D01*
X139735560Y-111061500D02*
X139735560Y-111310420D01*
X139885420Y-111310420D02*
X139735560Y-111310420D01*
X139885420Y-111061500D02*
X139885420Y-111310420D01*
X138785600Y-111010700D02*
X141884400Y-111010700D01*
X141884400Y-111010700D02*
X141884400Y-112509300D01*
X141884400Y-112509300D02*
X138785600Y-112509300D01*
X138785600Y-112509300D02*
X138785600Y-111010700D01*
X140882262Y-111260646D02*
G75*
G03X139786360Y-111262160I-547262J-499354D01*
G01*
X140883133Y-112258398D02*
G75*
G03X140883640Y-111262160I-548133J498398D01*
G01*
X139787738Y-112259354D02*
G75*
G03X140883640Y-112257840I547262J499354D01*
G01*
X139786867Y-111261602D02*
G75*
G03X139786360Y-112257840I548133J-498398D01*
G01*
X140434060Y-119280940D02*
X140235940Y-119280940D01*
X140235940Y-119280940D02*
X140235940Y-119479060D01*
X140434060Y-119479060D02*
X140235940Y-119479060D01*
X140434060Y-119280940D02*
X140434060Y-119479060D01*
X139885420Y-118681500D02*
X139537440Y-118681500D01*
X139537440Y-118681500D02*
X139537440Y-118930420D01*
X139885420Y-118930420D02*
X139537440Y-118930420D01*
X139885420Y-118681500D02*
X139885420Y-118930420D01*
X139537440Y-118681500D02*
X139435840Y-118681500D01*
X139435840Y-118681500D02*
X139435840Y-119877840D01*
X139537440Y-119877840D02*
X139435840Y-119877840D01*
X139537440Y-118681500D02*
X139537440Y-119877840D01*
X139537440Y-119928640D02*
X139435840Y-119928640D01*
X139435840Y-119928640D02*
X139435840Y-120078500D01*
X139537440Y-120078500D02*
X139435840Y-120078500D01*
X139537440Y-119928640D02*
X139537440Y-120078500D01*
X141234160Y-118681500D02*
X141132560Y-118681500D01*
X141132560Y-118681500D02*
X141132560Y-119877840D01*
X141234160Y-119877840D02*
X141132560Y-119877840D01*
X141234160Y-118681500D02*
X141234160Y-119877840D01*
X141234160Y-119928640D02*
X141132560Y-119928640D01*
X141132560Y-119928640D02*
X141132560Y-120078500D01*
X141234160Y-120078500D02*
X141132560Y-120078500D01*
X141234160Y-119928640D02*
X141234160Y-120078500D01*
X139885420Y-118681500D02*
X139735560Y-118681500D01*
X139735560Y-118681500D02*
X139735560Y-118930420D01*
X139885420Y-118930420D02*
X139735560Y-118930420D01*
X139885420Y-118681500D02*
X139885420Y-118930420D01*
X138785600Y-118630700D02*
X141884400Y-118630700D01*
X141884400Y-118630700D02*
X141884400Y-120129300D01*
X141884400Y-120129300D02*
X138785600Y-120129300D01*
X138785600Y-120129300D02*
X138785600Y-118630700D01*
X140882262Y-118880646D02*
G75*
G03X139786360Y-118882160I-547262J-499354D01*
G01*
X140883133Y-119878398D02*
G75*
G03X140883640Y-118882160I-548133J498398D01*
G01*
X139787738Y-119879354D02*
G75*
G03X140883640Y-119877840I547262J499354D01*
G01*
X139786867Y-118881602D02*
G75*
G03X139786360Y-119877840I548133J-498398D01*
G01*
X116080000Y-100635000D02*
X116080000Y-103835000D01*
X122880120Y-100634800D02*
X122880120Y-103835200D01*
X115880000Y-100635000D02*
X115880000Y-103835000D01*
X120576340Y-103840280D02*
X122862340Y-103840280D01*
X122862340Y-100629720D02*
X120576340Y-100629720D01*
X118180000Y-100635000D02*
X115880000Y-100635000D01*
X115880000Y-103835000D02*
X118180000Y-103835000D01*
X184150000Y-107950000D02*
X184150000Y-125730000D01*
X184150000Y-125730000D02*
X181610000Y-125730000D01*
X181610000Y-125730000D02*
X181610000Y-107950000D01*
X184430000Y-105130000D02*
X184430000Y-106680000D01*
X184150000Y-107950000D02*
X181610000Y-107950000D01*
X181330000Y-106680000D02*
X181330000Y-105130000D01*
X181330000Y-105130000D02*
X184430000Y-105130000D01*
X189230000Y-107950000D02*
X189230000Y-125730000D01*
X189230000Y-125730000D02*
X186690000Y-125730000D01*
X186690000Y-125730000D02*
X186690000Y-107950000D01*
X189510000Y-105130000D02*
X189510000Y-106680000D01*
X189230000Y-107950000D02*
X186690000Y-107950000D01*
X186410000Y-106680000D02*
X186410000Y-105130000D01*
X186410000Y-105130000D02*
X189510000Y-105130000D01*
X186690000Y-107950000D02*
X186690000Y-125730000D01*
X186690000Y-125730000D02*
X184150000Y-125730000D01*
X184150000Y-125730000D02*
X184150000Y-107950000D01*
X186970000Y-105130000D02*
X186970000Y-106680000D01*
X186690000Y-107950000D02*
X184150000Y-107950000D01*
X183870000Y-106680000D02*
X183870000Y-105130000D01*
X183870000Y-105130000D02*
X186970000Y-105130000D01*
X184150000Y-132080000D02*
X184150000Y-149860000D01*
X184150000Y-149860000D02*
X181610000Y-149860000D01*
X181610000Y-149860000D02*
X181610000Y-132080000D01*
X184430000Y-129260000D02*
X184430000Y-130810000D01*
X184150000Y-132080000D02*
X181610000Y-132080000D01*
X181330000Y-130810000D02*
X181330000Y-129260000D01*
X181330000Y-129260000D02*
X184430000Y-129260000D01*
X189230000Y-132080000D02*
X189230000Y-149860000D01*
X189230000Y-149860000D02*
X186690000Y-149860000D01*
X186690000Y-149860000D02*
X186690000Y-132080000D01*
X189510000Y-129260000D02*
X189510000Y-130810000D01*
X189230000Y-132080000D02*
X186690000Y-132080000D01*
X186410000Y-130810000D02*
X186410000Y-129260000D01*
X186410000Y-129260000D02*
X189510000Y-129260000D01*
X186690000Y-132080000D02*
X186690000Y-149860000D01*
X186690000Y-149860000D02*
X184150000Y-149860000D01*
X184150000Y-149860000D02*
X184150000Y-132080000D01*
X186970000Y-129260000D02*
X186970000Y-130810000D01*
X186690000Y-132080000D02*
X184150000Y-132080000D01*
X183870000Y-130810000D02*
X183870000Y-129260000D01*
X183870000Y-129260000D02*
X186970000Y-129260000D01*
X128625000Y-133350000D02*
X128625000Y-131800000D01*
X128625000Y-131800000D02*
X131725000Y-131800000D01*
X131725000Y-131800000D02*
X131725000Y-133350000D01*
X131445000Y-134620000D02*
X131445000Y-144780000D01*
X131445000Y-144780000D02*
X128905000Y-144780000D01*
X128905000Y-144780000D02*
X128905000Y-134620000D01*
X131445000Y-134620000D02*
X128905000Y-134620000D01*
X114935000Y-123825000D02*
X122555000Y-123825000D01*
X114935000Y-139065000D02*
X122555000Y-139065000D01*
X116205000Y-123825000D02*
X116205000Y-139065000D01*
X122555000Y-123825000D02*
X122555000Y-139065000D01*
X114935000Y-123825000D02*
X114935000Y-139065000D01*
X116205000Y-116205000D02*
X116205000Y-106045000D01*
X114935000Y-116205000D02*
X122555000Y-116205000D01*
X122555000Y-116205000D02*
X122555000Y-106045000D01*
X122555000Y-106045000D02*
X114935000Y-106045000D01*
X114935000Y-106045000D02*
X114935000Y-116205000D01*
X175225000Y-107555000D02*
X174025000Y-107555000D01*
X174025000Y-105805000D02*
X175225000Y-105805000D01*
X175225000Y-110095000D02*
X174025000Y-110095000D01*
X174025000Y-108345000D02*
X175225000Y-108345000D01*
X175225000Y-112635000D02*
X174025000Y-112635000D01*
X174025000Y-110885000D02*
X175225000Y-110885000D01*
X175225000Y-115175000D02*
X174025000Y-115175000D01*
X174025000Y-113425000D02*
X175225000Y-113425000D01*
X175225000Y-117715000D02*
X174025000Y-117715000D01*
X174025000Y-115965000D02*
X175225000Y-115965000D01*
X175225000Y-120255000D02*
X174025000Y-120255000D01*
X174025000Y-118505000D02*
X175225000Y-118505000D01*
X175225000Y-122795000D02*
X174025000Y-122795000D01*
X174025000Y-121045000D02*
X175225000Y-121045000D01*
X175225000Y-125335000D02*
X174025000Y-125335000D01*
X174025000Y-123585000D02*
X175225000Y-123585000D01*
X175225000Y-131685000D02*
X174025000Y-131685000D01*
X174025000Y-129935000D02*
X175225000Y-129935000D01*
X175225000Y-134225000D02*
X174025000Y-134225000D01*
X174025000Y-132475000D02*
X175225000Y-132475000D01*
X175225000Y-136765000D02*
X174025000Y-136765000D01*
X174025000Y-135015000D02*
X175225000Y-135015000D01*
X175225000Y-139305000D02*
X174025000Y-139305000D01*
X174025000Y-137555000D02*
X175225000Y-137555000D01*
X175225000Y-141845000D02*
X174025000Y-141845000D01*
X174025000Y-140095000D02*
X175225000Y-140095000D01*
X175225000Y-144385000D02*
X174025000Y-144385000D01*
X174025000Y-142635000D02*
X175225000Y-142635000D01*
X175225000Y-146925000D02*
X174025000Y-146925000D01*
X174025000Y-145175000D02*
X175225000Y-145175000D01*
X175225000Y-149465000D02*
X174025000Y-149465000D01*
X174025000Y-147715000D02*
X175225000Y-147715000D01*
X148625000Y-113425000D02*
X149825000Y-113425000D01*
X149825000Y-115175000D02*
X148625000Y-115175000D01*
X139735000Y-100090000D02*
X140935000Y-100090000D01*
X140935000Y-101840000D02*
X139735000Y-101840000D01*
X148625000Y-115965000D02*
X149825000Y-115965000D01*
X149825000Y-117715000D02*
X148625000Y-117715000D01*
X139735000Y-107710000D02*
X140935000Y-107710000D01*
X140935000Y-109460000D02*
X139735000Y-109460000D01*
X148625000Y-118505000D02*
X149825000Y-118505000D01*
X149825000Y-120255000D02*
X148625000Y-120255000D01*
X139735000Y-115330000D02*
X140935000Y-115330000D01*
X140935000Y-117080000D02*
X139735000Y-117080000D01*
X134655000Y-125490000D02*
X135855000Y-125490000D01*
X135855000Y-127240000D02*
X134655000Y-127240000D01*
X134655000Y-128665000D02*
X135855000Y-128665000D01*
X135855000Y-130415000D02*
X134655000Y-130415000D01*
X132560714Y-104140000D02*
G75*
G03X132560714Y-104140000I-1750714J0D01*
G01*
X134035000Y-100915000D02*
X134035000Y-101040000D01*
X134035000Y-107365000D02*
X134035000Y-107240000D01*
X127585000Y-107365000D02*
X127585000Y-107240000D01*
X127585000Y-101040000D02*
X127585000Y-100915000D01*
X134035000Y-102740000D02*
X134035000Y-105540000D01*
X127585000Y-100915000D02*
X134035000Y-100915000D01*
X127585000Y-102740000D02*
X127585000Y-105540000D01*
X127585000Y-107365000D02*
X134035000Y-107365000D01*
X132560714Y-111760000D02*
G75*
G03X132560714Y-111760000I-1750714J0D01*
G01*
X134035000Y-108535000D02*
X134035000Y-108660000D01*
X134035000Y-114985000D02*
X134035000Y-114860000D01*
X127585000Y-114985000D02*
X127585000Y-114860000D01*
X127585000Y-108660000D02*
X127585000Y-108535000D01*
X134035000Y-110360000D02*
X134035000Y-113160000D01*
X127585000Y-108535000D02*
X134035000Y-108535000D01*
X127585000Y-110360000D02*
X127585000Y-113160000D01*
X127585000Y-114985000D02*
X134035000Y-114985000D01*
X132560714Y-119380000D02*
G75*
G03X132560714Y-119380000I-1750714J0D01*
G01*
X134035000Y-116155000D02*
X134035000Y-116280000D01*
X134035000Y-122605000D02*
X134035000Y-122480000D01*
X127585000Y-122605000D02*
X127585000Y-122480000D01*
X127585000Y-116280000D02*
X127585000Y-116155000D01*
X134035000Y-117980000D02*
X134035000Y-120780000D01*
X127585000Y-116155000D02*
X134035000Y-116155000D01*
X127585000Y-117980000D02*
X127585000Y-120780000D01*
X127585000Y-122605000D02*
X134035000Y-122605000D01*
X147320000Y-123190000D02*
X147320000Y-124460000D01*
X147320000Y-124460000D02*
X144780000Y-124460000D01*
X144780000Y-124460000D02*
X144780000Y-123190000D01*
X148590000Y-123190000D02*
X148590000Y-148590000D01*
X148590000Y-148590000D02*
X143510000Y-148590000D01*
X143510000Y-148590000D02*
X143510000Y-123190000D01*
X143510000Y-123190000D02*
X148590000Y-123190000D01*
X161925000Y-101600000D02*
X161925000Y-101600000D01*
X161925000Y-101600000D02*
X161925000Y-102870000D01*
X161925000Y-102870000D02*
X159385000Y-102870000D01*
X159385000Y-102870000D02*
X159385000Y-101600000D01*
X163195000Y-101600000D02*
X163195000Y-124460000D01*
X163195000Y-124460000D02*
X158115000Y-124460000D01*
X158115000Y-124460000D02*
X158115000Y-101600000D01*
X158115000Y-101600000D02*
X163195000Y-101600000D01*
X161925000Y-125730000D02*
X161925000Y-125730000D01*
X161925000Y-125730000D02*
X161925000Y-127000000D01*
X161925000Y-127000000D02*
X159385000Y-127000000D01*
X159385000Y-127000000D02*
X159385000Y-125730000D01*
X163195000Y-125730000D02*
X163195000Y-148590000D01*
X163195000Y-148590000D02*
X158115000Y-148590000D01*
X158115000Y-148590000D02*
X158115000Y-125730000D01*
X158115000Y-125730000D02*
X163195000Y-125730000D01*
X153035000Y-102870000D02*
X153670000Y-102870000D01*
X153670000Y-102870000D02*
X153670000Y-111760000D01*
X153670000Y-111760000D02*
X153035000Y-111760000D01*
X149225000Y-102870000D02*
X153035000Y-102870000D01*
X153035000Y-102870000D02*
X153035000Y-111760000D01*
X153035000Y-111760000D02*
X149225000Y-111760000D01*
X149225000Y-111760000D02*
X149225000Y-102870000D01*
X164933334Y-99417143D02*
X164885715Y-99464762D01*
X164742858Y-99512381D01*
X164647620Y-99512381D01*
X164504762Y-99464762D01*
X164409524Y-99369524D01*
X164361905Y-99274286D01*
X164314286Y-99083810D01*
X164314286Y-98940952D01*
X164361905Y-98750476D01*
X164409524Y-98655238D01*
X164504762Y-98560000D01*
X164647620Y-98512381D01*
X164742858Y-98512381D01*
X164885715Y-98560000D01*
X164933334Y-98607619D01*
X165885715Y-99512381D02*
X165314286Y-99512381D01*
X165600000Y-99512381D02*
X165600000Y-98512381D01*
X165504762Y-98655238D01*
X165409524Y-98750476D01*
X165314286Y-98798095D01*
X143978334Y-98782143D02*
X143930715Y-98829762D01*
X143787858Y-98877381D01*
X143692620Y-98877381D01*
X143549762Y-98829762D01*
X143454524Y-98734524D01*
X143406905Y-98639286D01*
X143359286Y-98448810D01*
X143359286Y-98305952D01*
X143406905Y-98115476D01*
X143454524Y-98020238D01*
X143549762Y-97925000D01*
X143692620Y-97877381D01*
X143787858Y-97877381D01*
X143930715Y-97925000D01*
X143978334Y-97972619D01*
X144359286Y-97972619D02*
X144406905Y-97925000D01*
X144502143Y-97877381D01*
X144740239Y-97877381D01*
X144835477Y-97925000D01*
X144883096Y-97972619D01*
X144930715Y-98067857D01*
X144930715Y-98163095D01*
X144883096Y-98305952D01*
X144311667Y-98877381D01*
X144930715Y-98877381D01*
X167473334Y-127552143D02*
X167425715Y-127599762D01*
X167282858Y-127647381D01*
X167187620Y-127647381D01*
X167044762Y-127599762D01*
X166949524Y-127504524D01*
X166901905Y-127409286D01*
X166854286Y-127218810D01*
X166854286Y-127075952D01*
X166901905Y-126885476D01*
X166949524Y-126790238D01*
X167044762Y-126695000D01*
X167187620Y-126647381D01*
X167282858Y-126647381D01*
X167425715Y-126695000D01*
X167473334Y-126742619D01*
X167806667Y-126647381D02*
X168425715Y-126647381D01*
X168092381Y-127028333D01*
X168235239Y-127028333D01*
X168330477Y-127075952D01*
X168378096Y-127123571D01*
X168425715Y-127218810D01*
X168425715Y-127456905D01*
X168378096Y-127552143D01*
X168330477Y-127599762D01*
X168235239Y-127647381D01*
X167949524Y-127647381D01*
X167854286Y-127599762D01*
X167806667Y-127552143D01*
X152562143Y-108751666D02*
X152609762Y-108799285D01*
X152657381Y-108942142D01*
X152657381Y-109037380D01*
X152609762Y-109180238D01*
X152514524Y-109275476D01*
X152419286Y-109323095D01*
X152228810Y-109370714D01*
X152085952Y-109370714D01*
X151895476Y-109323095D01*
X151800238Y-109275476D01*
X151705000Y-109180238D01*
X151657381Y-109037380D01*
X151657381Y-108942142D01*
X151705000Y-108799285D01*
X151752619Y-108751666D01*
X151657381Y-107846904D02*
X151657381Y-108323095D01*
X152133571Y-108370714D01*
X152085952Y-108323095D01*
X152038333Y-108227857D01*
X152038333Y-107989761D01*
X152085952Y-107894523D01*
X152133571Y-107846904D01*
X152228810Y-107799285D01*
X152466905Y-107799285D01*
X152562143Y-107846904D01*
X152609762Y-107894523D01*
X152657381Y-107989761D01*
X152657381Y-108227857D01*
X152609762Y-108323095D01*
X152562143Y-108370714D01*
X143406905Y-104592381D02*
X143406905Y-103592381D01*
X143645000Y-103592381D01*
X143787858Y-103640000D01*
X143883096Y-103735238D01*
X143930715Y-103830476D01*
X143978334Y-104020952D01*
X143978334Y-104163810D01*
X143930715Y-104354286D01*
X143883096Y-104449524D01*
X143787858Y-104544762D01*
X143645000Y-104592381D01*
X143406905Y-104592381D01*
X144930715Y-104592381D02*
X144359286Y-104592381D01*
X144645000Y-104592381D02*
X144645000Y-103592381D01*
X144549762Y-103735238D01*
X144454524Y-103830476D01*
X144359286Y-103878095D01*
X143406905Y-112212381D02*
X143406905Y-111212381D01*
X143645000Y-111212381D01*
X143787858Y-111260000D01*
X143883096Y-111355238D01*
X143930715Y-111450476D01*
X143978334Y-111640952D01*
X143978334Y-111783810D01*
X143930715Y-111974286D01*
X143883096Y-112069524D01*
X143787858Y-112164762D01*
X143645000Y-112212381D01*
X143406905Y-112212381D01*
X144359286Y-111307619D02*
X144406905Y-111260000D01*
X144502143Y-111212381D01*
X144740239Y-111212381D01*
X144835477Y-111260000D01*
X144883096Y-111307619D01*
X144930715Y-111402857D01*
X144930715Y-111498095D01*
X144883096Y-111640952D01*
X144311667Y-112212381D01*
X144930715Y-112212381D01*
X143406905Y-119832381D02*
X143406905Y-118832381D01*
X143645000Y-118832381D01*
X143787858Y-118880000D01*
X143883096Y-118975238D01*
X143930715Y-119070476D01*
X143978334Y-119260952D01*
X143978334Y-119403810D01*
X143930715Y-119594286D01*
X143883096Y-119689524D01*
X143787858Y-119784762D01*
X143645000Y-119832381D01*
X143406905Y-119832381D01*
X144311667Y-118832381D02*
X144930715Y-118832381D01*
X144597381Y-119213333D01*
X144740239Y-119213333D01*
X144835477Y-119260952D01*
X144883096Y-119308571D01*
X144930715Y-119403810D01*
X144930715Y-119641905D01*
X144883096Y-119737143D01*
X144835477Y-119784762D01*
X144740239Y-119832381D01*
X144454524Y-119832381D01*
X144359286Y-119784762D01*
X144311667Y-119737143D01*
X118641905Y-101987381D02*
X118641905Y-100987381D01*
X118880000Y-100987381D01*
X119022858Y-101035000D01*
X119118096Y-101130238D01*
X119165715Y-101225476D01*
X119213334Y-101415952D01*
X119213334Y-101558810D01*
X119165715Y-101749286D01*
X119118096Y-101844524D01*
X119022858Y-101939762D01*
X118880000Y-101987381D01*
X118641905Y-101987381D01*
X120070477Y-101320714D02*
X120070477Y-101987381D01*
X119832381Y-100939762D02*
X119594286Y-101654048D01*
X120213334Y-101654048D01*
X178697143Y-104592381D02*
X178697143Y-103592381D01*
X179078096Y-103592381D01*
X179173334Y-103640000D01*
X179220953Y-103687619D01*
X179268572Y-103782857D01*
X179268572Y-103925714D01*
X179220953Y-104020952D01*
X179173334Y-104068571D01*
X179078096Y-104116190D01*
X178697143Y-104116190D01*
X180220953Y-104592381D02*
X179649524Y-104592381D01*
X179935238Y-104592381D02*
X179935238Y-103592381D01*
X179840000Y-103735238D01*
X179744762Y-103830476D01*
X179649524Y-103878095D01*
X180601905Y-104306667D02*
X181078096Y-104306667D01*
X180506667Y-104592381D02*
X180840000Y-103592381D01*
X181173334Y-104592381D01*
X182030477Y-104592381D02*
X181459048Y-104592381D01*
X181744762Y-104592381D02*
X181744762Y-103592381D01*
X181649524Y-103735238D01*
X181554286Y-103830476D01*
X181459048Y-103878095D01*
X187515714Y-104592381D02*
X187515714Y-103592381D01*
X187896667Y-103592381D01*
X187991905Y-103640000D01*
X188039524Y-103687619D01*
X188087143Y-103782857D01*
X188087143Y-103925714D01*
X188039524Y-104020952D01*
X187991905Y-104068571D01*
X187896667Y-104116190D01*
X187515714Y-104116190D01*
X189039524Y-104592381D02*
X188468095Y-104592381D01*
X188753809Y-104592381D02*
X188753809Y-103592381D01*
X188658571Y-103735238D01*
X188563333Y-103830476D01*
X188468095Y-103878095D01*
X189801429Y-104068571D02*
X189944286Y-104116190D01*
X189991905Y-104163810D01*
X190039524Y-104259048D01*
X190039524Y-104401905D01*
X189991905Y-104497143D01*
X189944286Y-104544762D01*
X189849048Y-104592381D01*
X189468095Y-104592381D01*
X189468095Y-103592381D01*
X189801429Y-103592381D01*
X189896667Y-103640000D01*
X189944286Y-103687619D01*
X189991905Y-103782857D01*
X189991905Y-103878095D01*
X189944286Y-103973333D01*
X189896667Y-104020952D01*
X189801429Y-104068571D01*
X189468095Y-104068571D01*
X190991905Y-104592381D02*
X190420476Y-104592381D01*
X190706190Y-104592381D02*
X190706190Y-103592381D01*
X190610952Y-103735238D01*
X190515714Y-103830476D01*
X190420476Y-103878095D01*
X183070714Y-104592381D02*
X183070714Y-103592381D01*
X183451667Y-103592381D01*
X183546905Y-103640000D01*
X183594524Y-103687619D01*
X183642143Y-103782857D01*
X183642143Y-103925714D01*
X183594524Y-104020952D01*
X183546905Y-104068571D01*
X183451667Y-104116190D01*
X183070714Y-104116190D01*
X184594524Y-104592381D02*
X184023095Y-104592381D01*
X184308809Y-104592381D02*
X184308809Y-103592381D01*
X184213571Y-103735238D01*
X184118333Y-103830476D01*
X184023095Y-103878095D01*
X185594524Y-104497143D02*
X185546905Y-104544762D01*
X185404048Y-104592381D01*
X185308810Y-104592381D01*
X185165952Y-104544762D01*
X185070714Y-104449524D01*
X185023095Y-104354286D01*
X184975476Y-104163810D01*
X184975476Y-104020952D01*
X185023095Y-103830476D01*
X185070714Y-103735238D01*
X185165952Y-103640000D01*
X185308810Y-103592381D01*
X185404048Y-103592381D01*
X185546905Y-103640000D01*
X185594524Y-103687619D01*
X186546905Y-104592381D02*
X185975476Y-104592381D01*
X186261190Y-104592381D02*
X186261190Y-103592381D01*
X186165952Y-103735238D01*
X186070714Y-103830476D01*
X185975476Y-103878095D01*
X178697143Y-128722381D02*
X178697143Y-127722381D01*
X179078096Y-127722381D01*
X179173334Y-127770000D01*
X179220953Y-127817619D01*
X179268572Y-127912857D01*
X179268572Y-128055714D01*
X179220953Y-128150952D01*
X179173334Y-128198571D01*
X179078096Y-128246190D01*
X178697143Y-128246190D01*
X179649524Y-127817619D02*
X179697143Y-127770000D01*
X179792381Y-127722381D01*
X180030477Y-127722381D01*
X180125715Y-127770000D01*
X180173334Y-127817619D01*
X180220953Y-127912857D01*
X180220953Y-128008095D01*
X180173334Y-128150952D01*
X179601905Y-128722381D01*
X180220953Y-128722381D01*
X180601905Y-128436667D02*
X181078096Y-128436667D01*
X180506667Y-128722381D02*
X180840000Y-127722381D01*
X181173334Y-128722381D01*
X182030477Y-128722381D02*
X181459048Y-128722381D01*
X181744762Y-128722381D02*
X181744762Y-127722381D01*
X181649524Y-127865238D01*
X181554286Y-127960476D01*
X181459048Y-128008095D01*
X187515714Y-128722381D02*
X187515714Y-127722381D01*
X187896667Y-127722381D01*
X187991905Y-127770000D01*
X188039524Y-127817619D01*
X188087143Y-127912857D01*
X188087143Y-128055714D01*
X188039524Y-128150952D01*
X187991905Y-128198571D01*
X187896667Y-128246190D01*
X187515714Y-128246190D01*
X188468095Y-127817619D02*
X188515714Y-127770000D01*
X188610952Y-127722381D01*
X188849048Y-127722381D01*
X188944286Y-127770000D01*
X188991905Y-127817619D01*
X189039524Y-127912857D01*
X189039524Y-128008095D01*
X188991905Y-128150952D01*
X188420476Y-128722381D01*
X189039524Y-128722381D01*
X189801429Y-128198571D02*
X189944286Y-128246190D01*
X189991905Y-128293810D01*
X190039524Y-128389048D01*
X190039524Y-128531905D01*
X189991905Y-128627143D01*
X189944286Y-128674762D01*
X189849048Y-128722381D01*
X189468095Y-128722381D01*
X189468095Y-127722381D01*
X189801429Y-127722381D01*
X189896667Y-127770000D01*
X189944286Y-127817619D01*
X189991905Y-127912857D01*
X189991905Y-128008095D01*
X189944286Y-128103333D01*
X189896667Y-128150952D01*
X189801429Y-128198571D01*
X189468095Y-128198571D01*
X190991905Y-128722381D02*
X190420476Y-128722381D01*
X190706190Y-128722381D02*
X190706190Y-127722381D01*
X190610952Y-127865238D01*
X190515714Y-127960476D01*
X190420476Y-128008095D01*
X183070714Y-128722381D02*
X183070714Y-127722381D01*
X183451667Y-127722381D01*
X183546905Y-127770000D01*
X183594524Y-127817619D01*
X183642143Y-127912857D01*
X183642143Y-128055714D01*
X183594524Y-128150952D01*
X183546905Y-128198571D01*
X183451667Y-128246190D01*
X183070714Y-128246190D01*
X184023095Y-127817619D02*
X184070714Y-127770000D01*
X184165952Y-127722381D01*
X184404048Y-127722381D01*
X184499286Y-127770000D01*
X184546905Y-127817619D01*
X184594524Y-127912857D01*
X184594524Y-128008095D01*
X184546905Y-128150952D01*
X183975476Y-128722381D01*
X184594524Y-128722381D01*
X185594524Y-128627143D02*
X185546905Y-128674762D01*
X185404048Y-128722381D01*
X185308810Y-128722381D01*
X185165952Y-128674762D01*
X185070714Y-128579524D01*
X185023095Y-128484286D01*
X184975476Y-128293810D01*
X184975476Y-128150952D01*
X185023095Y-127960476D01*
X185070714Y-127865238D01*
X185165952Y-127770000D01*
X185308810Y-127722381D01*
X185404048Y-127722381D01*
X185546905Y-127770000D01*
X185594524Y-127817619D01*
X186546905Y-128722381D02*
X185975476Y-128722381D01*
X186261190Y-128722381D02*
X186261190Y-127722381D01*
X186165952Y-127865238D01*
X186070714Y-127960476D01*
X185975476Y-128008095D01*
X126896905Y-131262381D02*
X126896905Y-130262381D01*
X127277858Y-130262381D01*
X127373096Y-130310000D01*
X127420715Y-130357619D01*
X127468334Y-130452857D01*
X127468334Y-130595714D01*
X127420715Y-130690952D01*
X127373096Y-130738571D01*
X127277858Y-130786190D01*
X126896905Y-130786190D01*
X127801667Y-130262381D02*
X128420715Y-130262381D01*
X128087381Y-130643333D01*
X128230239Y-130643333D01*
X128325477Y-130690952D01*
X128373096Y-130738571D01*
X128420715Y-130833810D01*
X128420715Y-131071905D01*
X128373096Y-131167143D01*
X128325477Y-131214762D01*
X128230239Y-131262381D01*
X127944524Y-131262381D01*
X127849286Y-131214762D01*
X127801667Y-131167143D01*
X114831905Y-123007381D02*
X114831905Y-122007381D01*
X115212858Y-122007381D01*
X115308096Y-122055000D01*
X115355715Y-122102619D01*
X115403334Y-122197857D01*
X115403334Y-122340714D01*
X115355715Y-122435952D01*
X115308096Y-122483571D01*
X115212858Y-122531190D01*
X114831905Y-122531190D01*
X116260477Y-122340714D02*
X116260477Y-123007381D01*
X116022381Y-121959762D02*
X115784286Y-122674048D01*
X116403334Y-122674048D01*
X124277381Y-111863095D02*
X123277381Y-111863095D01*
X123277381Y-111482142D01*
X123325000Y-111386904D01*
X123372619Y-111339285D01*
X123467857Y-111291666D01*
X123610714Y-111291666D01*
X123705952Y-111339285D01*
X123753571Y-111386904D01*
X123801190Y-111482142D01*
X123801190Y-111863095D01*
X123277381Y-110386904D02*
X123277381Y-110863095D01*
X123753571Y-110910714D01*
X123705952Y-110863095D01*
X123658333Y-110767857D01*
X123658333Y-110529761D01*
X123705952Y-110434523D01*
X123753571Y-110386904D01*
X123848810Y-110339285D01*
X124086905Y-110339285D01*
X124182143Y-110386904D01*
X124229762Y-110434523D01*
X124277381Y-110529761D01*
X124277381Y-110767857D01*
X124229762Y-110863095D01*
X124182143Y-110910714D01*
X170648334Y-107132381D02*
X170315000Y-106656190D01*
X170076905Y-107132381D02*
X170076905Y-106132381D01*
X170457858Y-106132381D01*
X170553096Y-106180000D01*
X170600715Y-106227619D01*
X170648334Y-106322857D01*
X170648334Y-106465714D01*
X170600715Y-106560952D01*
X170553096Y-106608571D01*
X170457858Y-106656190D01*
X170076905Y-106656190D01*
X171600715Y-107132381D02*
X171029286Y-107132381D01*
X171315000Y-107132381D02*
X171315000Y-106132381D01*
X171219762Y-106275238D01*
X171124524Y-106370476D01*
X171029286Y-106418095D01*
X170648334Y-109672381D02*
X170315000Y-109196190D01*
X170076905Y-109672381D02*
X170076905Y-108672381D01*
X170457858Y-108672381D01*
X170553096Y-108720000D01*
X170600715Y-108767619D01*
X170648334Y-108862857D01*
X170648334Y-109005714D01*
X170600715Y-109100952D01*
X170553096Y-109148571D01*
X170457858Y-109196190D01*
X170076905Y-109196190D01*
X171029286Y-108767619D02*
X171076905Y-108720000D01*
X171172143Y-108672381D01*
X171410239Y-108672381D01*
X171505477Y-108720000D01*
X171553096Y-108767619D01*
X171600715Y-108862857D01*
X171600715Y-108958095D01*
X171553096Y-109100952D01*
X170981667Y-109672381D01*
X171600715Y-109672381D01*
X170648334Y-112212381D02*
X170315000Y-111736190D01*
X170076905Y-112212381D02*
X170076905Y-111212381D01*
X170457858Y-111212381D01*
X170553096Y-111260000D01*
X170600715Y-111307619D01*
X170648334Y-111402857D01*
X170648334Y-111545714D01*
X170600715Y-111640952D01*
X170553096Y-111688571D01*
X170457858Y-111736190D01*
X170076905Y-111736190D01*
X170981667Y-111212381D02*
X171600715Y-111212381D01*
X171267381Y-111593333D01*
X171410239Y-111593333D01*
X171505477Y-111640952D01*
X171553096Y-111688571D01*
X171600715Y-111783810D01*
X171600715Y-112021905D01*
X171553096Y-112117143D01*
X171505477Y-112164762D01*
X171410239Y-112212381D01*
X171124524Y-112212381D01*
X171029286Y-112164762D01*
X170981667Y-112117143D01*
X170648334Y-114752381D02*
X170315000Y-114276190D01*
X170076905Y-114752381D02*
X170076905Y-113752381D01*
X170457858Y-113752381D01*
X170553096Y-113800000D01*
X170600715Y-113847619D01*
X170648334Y-113942857D01*
X170648334Y-114085714D01*
X170600715Y-114180952D01*
X170553096Y-114228571D01*
X170457858Y-114276190D01*
X170076905Y-114276190D01*
X171505477Y-114085714D02*
X171505477Y-114752381D01*
X171267381Y-113704762D02*
X171029286Y-114419048D01*
X171648334Y-114419048D01*
X170648334Y-117292381D02*
X170315000Y-116816190D01*
X170076905Y-117292381D02*
X170076905Y-116292381D01*
X170457858Y-116292381D01*
X170553096Y-116340000D01*
X170600715Y-116387619D01*
X170648334Y-116482857D01*
X170648334Y-116625714D01*
X170600715Y-116720952D01*
X170553096Y-116768571D01*
X170457858Y-116816190D01*
X170076905Y-116816190D01*
X171553096Y-116292381D02*
X171076905Y-116292381D01*
X171029286Y-116768571D01*
X171076905Y-116720952D01*
X171172143Y-116673333D01*
X171410239Y-116673333D01*
X171505477Y-116720952D01*
X171553096Y-116768571D01*
X171600715Y-116863810D01*
X171600715Y-117101905D01*
X171553096Y-117197143D01*
X171505477Y-117244762D01*
X171410239Y-117292381D01*
X171172143Y-117292381D01*
X171076905Y-117244762D01*
X171029286Y-117197143D01*
X170648334Y-119832381D02*
X170315000Y-119356190D01*
X170076905Y-119832381D02*
X170076905Y-118832381D01*
X170457858Y-118832381D01*
X170553096Y-118880000D01*
X170600715Y-118927619D01*
X170648334Y-119022857D01*
X170648334Y-119165714D01*
X170600715Y-119260952D01*
X170553096Y-119308571D01*
X170457858Y-119356190D01*
X170076905Y-119356190D01*
X171505477Y-118832381D02*
X171315000Y-118832381D01*
X171219762Y-118880000D01*
X171172143Y-118927619D01*
X171076905Y-119070476D01*
X171029286Y-119260952D01*
X171029286Y-119641905D01*
X171076905Y-119737143D01*
X171124524Y-119784762D01*
X171219762Y-119832381D01*
X171410239Y-119832381D01*
X171505477Y-119784762D01*
X171553096Y-119737143D01*
X171600715Y-119641905D01*
X171600715Y-119403810D01*
X171553096Y-119308571D01*
X171505477Y-119260952D01*
X171410239Y-119213333D01*
X171219762Y-119213333D01*
X171124524Y-119260952D01*
X171076905Y-119308571D01*
X171029286Y-119403810D01*
X170648334Y-122372381D02*
X170315000Y-121896190D01*
X170076905Y-122372381D02*
X170076905Y-121372381D01*
X170457858Y-121372381D01*
X170553096Y-121420000D01*
X170600715Y-121467619D01*
X170648334Y-121562857D01*
X170648334Y-121705714D01*
X170600715Y-121800952D01*
X170553096Y-121848571D01*
X170457858Y-121896190D01*
X170076905Y-121896190D01*
X170981667Y-121372381D02*
X171648334Y-121372381D01*
X171219762Y-122372381D01*
X170648334Y-124912381D02*
X170315000Y-124436190D01*
X170076905Y-124912381D02*
X170076905Y-123912381D01*
X170457858Y-123912381D01*
X170553096Y-123960000D01*
X170600715Y-124007619D01*
X170648334Y-124102857D01*
X170648334Y-124245714D01*
X170600715Y-124340952D01*
X170553096Y-124388571D01*
X170457858Y-124436190D01*
X170076905Y-124436190D01*
X171219762Y-124340952D02*
X171124524Y-124293333D01*
X171076905Y-124245714D01*
X171029286Y-124150476D01*
X171029286Y-124102857D01*
X171076905Y-124007619D01*
X171124524Y-123960000D01*
X171219762Y-123912381D01*
X171410239Y-123912381D01*
X171505477Y-123960000D01*
X171553096Y-124007619D01*
X171600715Y-124102857D01*
X171600715Y-124150476D01*
X171553096Y-124245714D01*
X171505477Y-124293333D01*
X171410239Y-124340952D01*
X171219762Y-124340952D01*
X171124524Y-124388571D01*
X171076905Y-124436190D01*
X171029286Y-124531429D01*
X171029286Y-124721905D01*
X171076905Y-124817143D01*
X171124524Y-124864762D01*
X171219762Y-124912381D01*
X171410239Y-124912381D01*
X171505477Y-124864762D01*
X171553096Y-124817143D01*
X171600715Y-124721905D01*
X171600715Y-124531429D01*
X171553096Y-124436190D01*
X171505477Y-124388571D01*
X171410239Y-124340952D01*
X170013334Y-131262381D02*
X169680000Y-130786190D01*
X169441905Y-131262381D02*
X169441905Y-130262381D01*
X169822858Y-130262381D01*
X169918096Y-130310000D01*
X169965715Y-130357619D01*
X170013334Y-130452857D01*
X170013334Y-130595714D01*
X169965715Y-130690952D01*
X169918096Y-130738571D01*
X169822858Y-130786190D01*
X169441905Y-130786190D01*
X170489524Y-131262381D02*
X170680000Y-131262381D01*
X170775239Y-131214762D01*
X170822858Y-131167143D01*
X170918096Y-131024286D01*
X170965715Y-130833810D01*
X170965715Y-130452857D01*
X170918096Y-130357619D01*
X170870477Y-130310000D01*
X170775239Y-130262381D01*
X170584762Y-130262381D01*
X170489524Y-130310000D01*
X170441905Y-130357619D01*
X170394286Y-130452857D01*
X170394286Y-130690952D01*
X170441905Y-130786190D01*
X170489524Y-130833810D01*
X170584762Y-130881429D01*
X170775239Y-130881429D01*
X170870477Y-130833810D01*
X170918096Y-130786190D01*
X170965715Y-130690952D01*
X169537143Y-133802381D02*
X169203809Y-133326190D01*
X168965714Y-133802381D02*
X168965714Y-132802381D01*
X169346667Y-132802381D01*
X169441905Y-132850000D01*
X169489524Y-132897619D01*
X169537143Y-132992857D01*
X169537143Y-133135714D01*
X169489524Y-133230952D01*
X169441905Y-133278571D01*
X169346667Y-133326190D01*
X168965714Y-133326190D01*
X170489524Y-133802381D02*
X169918095Y-133802381D01*
X170203809Y-133802381D02*
X170203809Y-132802381D01*
X170108571Y-132945238D01*
X170013333Y-133040476D01*
X169918095Y-133088095D01*
X171108571Y-132802381D02*
X171203810Y-132802381D01*
X171299048Y-132850000D01*
X171346667Y-132897619D01*
X171394286Y-132992857D01*
X171441905Y-133183333D01*
X171441905Y-133421429D01*
X171394286Y-133611905D01*
X171346667Y-133707143D01*
X171299048Y-133754762D01*
X171203810Y-133802381D01*
X171108571Y-133802381D01*
X171013333Y-133754762D01*
X170965714Y-133707143D01*
X170918095Y-133611905D01*
X170870476Y-133421429D01*
X170870476Y-133183333D01*
X170918095Y-132992857D01*
X170965714Y-132897619D01*
X171013333Y-132850000D01*
X171108571Y-132802381D01*
X169537143Y-136342381D02*
X169203809Y-135866190D01*
X168965714Y-136342381D02*
X168965714Y-135342381D01*
X169346667Y-135342381D01*
X169441905Y-135390000D01*
X169489524Y-135437619D01*
X169537143Y-135532857D01*
X169537143Y-135675714D01*
X169489524Y-135770952D01*
X169441905Y-135818571D01*
X169346667Y-135866190D01*
X168965714Y-135866190D01*
X170489524Y-136342381D02*
X169918095Y-136342381D01*
X170203809Y-136342381D02*
X170203809Y-135342381D01*
X170108571Y-135485238D01*
X170013333Y-135580476D01*
X169918095Y-135628095D01*
X171441905Y-136342381D02*
X170870476Y-136342381D01*
X171156190Y-136342381D02*
X171156190Y-135342381D01*
X171060952Y-135485238D01*
X170965714Y-135580476D01*
X170870476Y-135628095D01*
X169537143Y-138882381D02*
X169203809Y-138406190D01*
X168965714Y-138882381D02*
X168965714Y-137882381D01*
X169346667Y-137882381D01*
X169441905Y-137930000D01*
X169489524Y-137977619D01*
X169537143Y-138072857D01*
X169537143Y-138215714D01*
X169489524Y-138310952D01*
X169441905Y-138358571D01*
X169346667Y-138406190D01*
X168965714Y-138406190D01*
X170489524Y-138882381D02*
X169918095Y-138882381D01*
X170203809Y-138882381D02*
X170203809Y-137882381D01*
X170108571Y-138025238D01*
X170013333Y-138120476D01*
X169918095Y-138168095D01*
X170870476Y-137977619D02*
X170918095Y-137930000D01*
X171013333Y-137882381D01*
X171251429Y-137882381D01*
X171346667Y-137930000D01*
X171394286Y-137977619D01*
X171441905Y-138072857D01*
X171441905Y-138168095D01*
X171394286Y-138310952D01*
X170822857Y-138882381D01*
X171441905Y-138882381D01*
X169537143Y-141422381D02*
X169203809Y-140946190D01*
X168965714Y-141422381D02*
X168965714Y-140422381D01*
X169346667Y-140422381D01*
X169441905Y-140470000D01*
X169489524Y-140517619D01*
X169537143Y-140612857D01*
X169537143Y-140755714D01*
X169489524Y-140850952D01*
X169441905Y-140898571D01*
X169346667Y-140946190D01*
X168965714Y-140946190D01*
X170489524Y-141422381D02*
X169918095Y-141422381D01*
X170203809Y-141422381D02*
X170203809Y-140422381D01*
X170108571Y-140565238D01*
X170013333Y-140660476D01*
X169918095Y-140708095D01*
X170822857Y-140422381D02*
X171441905Y-140422381D01*
X171108571Y-140803333D01*
X171251429Y-140803333D01*
X171346667Y-140850952D01*
X171394286Y-140898571D01*
X171441905Y-140993810D01*
X171441905Y-141231905D01*
X171394286Y-141327143D01*
X171346667Y-141374762D01*
X171251429Y-141422381D01*
X170965714Y-141422381D01*
X170870476Y-141374762D01*
X170822857Y-141327143D01*
X169537143Y-143962381D02*
X169203809Y-143486190D01*
X168965714Y-143962381D02*
X168965714Y-142962381D01*
X169346667Y-142962381D01*
X169441905Y-143010000D01*
X169489524Y-143057619D01*
X169537143Y-143152857D01*
X169537143Y-143295714D01*
X169489524Y-143390952D01*
X169441905Y-143438571D01*
X169346667Y-143486190D01*
X168965714Y-143486190D01*
X170489524Y-143962381D02*
X169918095Y-143962381D01*
X170203809Y-143962381D02*
X170203809Y-142962381D01*
X170108571Y-143105238D01*
X170013333Y-143200476D01*
X169918095Y-143248095D01*
X171346667Y-143295714D02*
X171346667Y-143962381D01*
X171108571Y-142914762D02*
X170870476Y-143629048D01*
X171489524Y-143629048D01*
X169537143Y-146502381D02*
X169203809Y-146026190D01*
X168965714Y-146502381D02*
X168965714Y-145502381D01*
X169346667Y-145502381D01*
X169441905Y-145550000D01*
X169489524Y-145597619D01*
X169537143Y-145692857D01*
X169537143Y-145835714D01*
X169489524Y-145930952D01*
X169441905Y-145978571D01*
X169346667Y-146026190D01*
X168965714Y-146026190D01*
X170489524Y-146502381D02*
X169918095Y-146502381D01*
X170203809Y-146502381D02*
X170203809Y-145502381D01*
X170108571Y-145645238D01*
X170013333Y-145740476D01*
X169918095Y-145788095D01*
X171394286Y-145502381D02*
X170918095Y-145502381D01*
X170870476Y-145978571D01*
X170918095Y-145930952D01*
X171013333Y-145883333D01*
X171251429Y-145883333D01*
X171346667Y-145930952D01*
X171394286Y-145978571D01*
X171441905Y-146073810D01*
X171441905Y-146311905D01*
X171394286Y-146407143D01*
X171346667Y-146454762D01*
X171251429Y-146502381D01*
X171013333Y-146502381D01*
X170918095Y-146454762D01*
X170870476Y-146407143D01*
X169537143Y-149042381D02*
X169203809Y-148566190D01*
X168965714Y-149042381D02*
X168965714Y-148042381D01*
X169346667Y-148042381D01*
X169441905Y-148090000D01*
X169489524Y-148137619D01*
X169537143Y-148232857D01*
X169537143Y-148375714D01*
X169489524Y-148470952D01*
X169441905Y-148518571D01*
X169346667Y-148566190D01*
X168965714Y-148566190D01*
X170489524Y-149042381D02*
X169918095Y-149042381D01*
X170203809Y-149042381D02*
X170203809Y-148042381D01*
X170108571Y-148185238D01*
X170013333Y-148280476D01*
X169918095Y-148328095D01*
X171346667Y-148042381D02*
X171156190Y-148042381D01*
X171060952Y-148090000D01*
X171013333Y-148137619D01*
X170918095Y-148280476D01*
X170870476Y-148470952D01*
X170870476Y-148851905D01*
X170918095Y-148947143D01*
X170965714Y-148994762D01*
X171060952Y-149042381D01*
X171251429Y-149042381D01*
X171346667Y-148994762D01*
X171394286Y-148947143D01*
X171441905Y-148851905D01*
X171441905Y-148613810D01*
X171394286Y-148518571D01*
X171346667Y-148470952D01*
X171251429Y-148423333D01*
X171060952Y-148423333D01*
X170965714Y-148470952D01*
X170918095Y-148518571D01*
X170870476Y-148613810D01*
X152392143Y-114752381D02*
X152058809Y-114276190D01*
X151820714Y-114752381D02*
X151820714Y-113752381D01*
X152201667Y-113752381D01*
X152296905Y-113800000D01*
X152344524Y-113847619D01*
X152392143Y-113942857D01*
X152392143Y-114085714D01*
X152344524Y-114180952D01*
X152296905Y-114228571D01*
X152201667Y-114276190D01*
X151820714Y-114276190D01*
X153344524Y-114752381D02*
X152773095Y-114752381D01*
X153058809Y-114752381D02*
X153058809Y-113752381D01*
X152963571Y-113895238D01*
X152868333Y-113990476D01*
X152773095Y-114038095D01*
X153677857Y-113752381D02*
X154344524Y-113752381D01*
X153915952Y-114752381D01*
X143502143Y-101417381D02*
X143168809Y-100941190D01*
X142930714Y-101417381D02*
X142930714Y-100417381D01*
X143311667Y-100417381D01*
X143406905Y-100465000D01*
X143454524Y-100512619D01*
X143502143Y-100607857D01*
X143502143Y-100750714D01*
X143454524Y-100845952D01*
X143406905Y-100893571D01*
X143311667Y-100941190D01*
X142930714Y-100941190D01*
X144454524Y-101417381D02*
X143883095Y-101417381D01*
X144168809Y-101417381D02*
X144168809Y-100417381D01*
X144073571Y-100560238D01*
X143978333Y-100655476D01*
X143883095Y-100703095D01*
X145025952Y-100845952D02*
X144930714Y-100798333D01*
X144883095Y-100750714D01*
X144835476Y-100655476D01*
X144835476Y-100607857D01*
X144883095Y-100512619D01*
X144930714Y-100465000D01*
X145025952Y-100417381D01*
X145216429Y-100417381D01*
X145311667Y-100465000D01*
X145359286Y-100512619D01*
X145406905Y-100607857D01*
X145406905Y-100655476D01*
X145359286Y-100750714D01*
X145311667Y-100798333D01*
X145216429Y-100845952D01*
X145025952Y-100845952D01*
X144930714Y-100893571D01*
X144883095Y-100941190D01*
X144835476Y-101036429D01*
X144835476Y-101226905D01*
X144883095Y-101322143D01*
X144930714Y-101369762D01*
X145025952Y-101417381D01*
X145216429Y-101417381D01*
X145311667Y-101369762D01*
X145359286Y-101322143D01*
X145406905Y-101226905D01*
X145406905Y-101036429D01*
X145359286Y-100941190D01*
X145311667Y-100893571D01*
X145216429Y-100845952D01*
X152392143Y-117292381D02*
X152058809Y-116816190D01*
X151820714Y-117292381D02*
X151820714Y-116292381D01*
X152201667Y-116292381D01*
X152296905Y-116340000D01*
X152344524Y-116387619D01*
X152392143Y-116482857D01*
X152392143Y-116625714D01*
X152344524Y-116720952D01*
X152296905Y-116768571D01*
X152201667Y-116816190D01*
X151820714Y-116816190D01*
X153344524Y-117292381D02*
X152773095Y-117292381D01*
X153058809Y-117292381D02*
X153058809Y-116292381D01*
X152963571Y-116435238D01*
X152868333Y-116530476D01*
X152773095Y-116578095D01*
X153820714Y-117292381D02*
X154011190Y-117292381D01*
X154106429Y-117244762D01*
X154154048Y-117197143D01*
X154249286Y-117054286D01*
X154296905Y-116863810D01*
X154296905Y-116482857D01*
X154249286Y-116387619D01*
X154201667Y-116340000D01*
X154106429Y-116292381D01*
X153915952Y-116292381D01*
X153820714Y-116340000D01*
X153773095Y-116387619D01*
X153725476Y-116482857D01*
X153725476Y-116720952D01*
X153773095Y-116816190D01*
X153820714Y-116863810D01*
X153915952Y-116911429D01*
X154106429Y-116911429D01*
X154201667Y-116863810D01*
X154249286Y-116816190D01*
X154296905Y-116720952D01*
X143502143Y-109037381D02*
X143168809Y-108561190D01*
X142930714Y-109037381D02*
X142930714Y-108037381D01*
X143311667Y-108037381D01*
X143406905Y-108085000D01*
X143454524Y-108132619D01*
X143502143Y-108227857D01*
X143502143Y-108370714D01*
X143454524Y-108465952D01*
X143406905Y-108513571D01*
X143311667Y-108561190D01*
X142930714Y-108561190D01*
X143883095Y-108132619D02*
X143930714Y-108085000D01*
X144025952Y-108037381D01*
X144264048Y-108037381D01*
X144359286Y-108085000D01*
X144406905Y-108132619D01*
X144454524Y-108227857D01*
X144454524Y-108323095D01*
X144406905Y-108465952D01*
X143835476Y-109037381D01*
X144454524Y-109037381D01*
X145073571Y-108037381D02*
X145168810Y-108037381D01*
X145264048Y-108085000D01*
X145311667Y-108132619D01*
X145359286Y-108227857D01*
X145406905Y-108418333D01*
X145406905Y-108656429D01*
X145359286Y-108846905D01*
X145311667Y-108942143D01*
X145264048Y-108989762D01*
X145168810Y-109037381D01*
X145073571Y-109037381D01*
X144978333Y-108989762D01*
X144930714Y-108942143D01*
X144883095Y-108846905D01*
X144835476Y-108656429D01*
X144835476Y-108418333D01*
X144883095Y-108227857D01*
X144930714Y-108132619D01*
X144978333Y-108085000D01*
X145073571Y-108037381D01*
X152392143Y-119832381D02*
X152058809Y-119356190D01*
X151820714Y-119832381D02*
X151820714Y-118832381D01*
X152201667Y-118832381D01*
X152296905Y-118880000D01*
X152344524Y-118927619D01*
X152392143Y-119022857D01*
X152392143Y-119165714D01*
X152344524Y-119260952D01*
X152296905Y-119308571D01*
X152201667Y-119356190D01*
X151820714Y-119356190D01*
X152773095Y-118927619D02*
X152820714Y-118880000D01*
X152915952Y-118832381D01*
X153154048Y-118832381D01*
X153249286Y-118880000D01*
X153296905Y-118927619D01*
X153344524Y-119022857D01*
X153344524Y-119118095D01*
X153296905Y-119260952D01*
X152725476Y-119832381D01*
X153344524Y-119832381D01*
X154296905Y-119832381D02*
X153725476Y-119832381D01*
X154011190Y-119832381D02*
X154011190Y-118832381D01*
X153915952Y-118975238D01*
X153820714Y-119070476D01*
X153725476Y-119118095D01*
X143502143Y-116657381D02*
X143168809Y-116181190D01*
X142930714Y-116657381D02*
X142930714Y-115657381D01*
X143311667Y-115657381D01*
X143406905Y-115705000D01*
X143454524Y-115752619D01*
X143502143Y-115847857D01*
X143502143Y-115990714D01*
X143454524Y-116085952D01*
X143406905Y-116133571D01*
X143311667Y-116181190D01*
X142930714Y-116181190D01*
X143883095Y-115752619D02*
X143930714Y-115705000D01*
X144025952Y-115657381D01*
X144264048Y-115657381D01*
X144359286Y-115705000D01*
X144406905Y-115752619D01*
X144454524Y-115847857D01*
X144454524Y-115943095D01*
X144406905Y-116085952D01*
X143835476Y-116657381D01*
X144454524Y-116657381D01*
X144835476Y-115752619D02*
X144883095Y-115705000D01*
X144978333Y-115657381D01*
X145216429Y-115657381D01*
X145311667Y-115705000D01*
X145359286Y-115752619D01*
X145406905Y-115847857D01*
X145406905Y-115943095D01*
X145359286Y-116085952D01*
X144787857Y-116657381D01*
X145406905Y-116657381D01*
X130802143Y-126817381D02*
X130468809Y-126341190D01*
X130230714Y-126817381D02*
X130230714Y-125817381D01*
X130611667Y-125817381D01*
X130706905Y-125865000D01*
X130754524Y-125912619D01*
X130802143Y-126007857D01*
X130802143Y-126150714D01*
X130754524Y-126245952D01*
X130706905Y-126293571D01*
X130611667Y-126341190D01*
X130230714Y-126341190D01*
X131183095Y-125912619D02*
X131230714Y-125865000D01*
X131325952Y-125817381D01*
X131564048Y-125817381D01*
X131659286Y-125865000D01*
X131706905Y-125912619D01*
X131754524Y-126007857D01*
X131754524Y-126103095D01*
X131706905Y-126245952D01*
X131135476Y-126817381D01*
X131754524Y-126817381D01*
X132087857Y-125817381D02*
X132706905Y-125817381D01*
X132373571Y-126198333D01*
X132516429Y-126198333D01*
X132611667Y-126245952D01*
X132659286Y-126293571D01*
X132706905Y-126388810D01*
X132706905Y-126626905D01*
X132659286Y-126722143D01*
X132611667Y-126769762D01*
X132516429Y-126817381D01*
X132230714Y-126817381D01*
X132135476Y-126769762D01*
X132087857Y-126722143D01*
X130802143Y-129992381D02*
X130468809Y-129516190D01*
X130230714Y-129992381D02*
X130230714Y-128992381D01*
X130611667Y-128992381D01*
X130706905Y-129040000D01*
X130754524Y-129087619D01*
X130802143Y-129182857D01*
X130802143Y-129325714D01*
X130754524Y-129420952D01*
X130706905Y-129468571D01*
X130611667Y-129516190D01*
X130230714Y-129516190D01*
X131183095Y-129087619D02*
X131230714Y-129040000D01*
X131325952Y-128992381D01*
X131564048Y-128992381D01*
X131659286Y-129040000D01*
X131706905Y-129087619D01*
X131754524Y-129182857D01*
X131754524Y-129278095D01*
X131706905Y-129420952D01*
X131135476Y-129992381D01*
X131754524Y-129992381D01*
X132611667Y-129325714D02*
X132611667Y-129992381D01*
X132373571Y-128944762D02*
X132135476Y-129659048D01*
X132754524Y-129659048D01*
X129476667Y-103744762D02*
X129619524Y-103792381D01*
X129857620Y-103792381D01*
X129952858Y-103744762D01*
X130000477Y-103697143D01*
X130048096Y-103601905D01*
X130048096Y-103506667D01*
X130000477Y-103411429D01*
X129952858Y-103363810D01*
X129857620Y-103316190D01*
X129667143Y-103268571D01*
X129571905Y-103220952D01*
X129524286Y-103173333D01*
X129476667Y-103078095D01*
X129476667Y-102982857D01*
X129524286Y-102887619D01*
X129571905Y-102840000D01*
X129667143Y-102792381D01*
X129905239Y-102792381D01*
X130048096Y-102840000D01*
X130381429Y-102792381D02*
X130619524Y-103792381D01*
X130810001Y-103078095D01*
X131000477Y-103792381D01*
X131238572Y-102792381D01*
X132143334Y-103792381D02*
X131571905Y-103792381D01*
X131857619Y-103792381D02*
X131857619Y-102792381D01*
X131762381Y-102935238D01*
X131667143Y-103030476D01*
X131571905Y-103078095D01*
X129476667Y-111364762D02*
X129619524Y-111412381D01*
X129857620Y-111412381D01*
X129952858Y-111364762D01*
X130000477Y-111317143D01*
X130048096Y-111221905D01*
X130048096Y-111126667D01*
X130000477Y-111031429D01*
X129952858Y-110983810D01*
X129857620Y-110936190D01*
X129667143Y-110888571D01*
X129571905Y-110840952D01*
X129524286Y-110793333D01*
X129476667Y-110698095D01*
X129476667Y-110602857D01*
X129524286Y-110507619D01*
X129571905Y-110460000D01*
X129667143Y-110412381D01*
X129905239Y-110412381D01*
X130048096Y-110460000D01*
X130381429Y-110412381D02*
X130619524Y-111412381D01*
X130810001Y-110698095D01*
X131000477Y-111412381D01*
X131238572Y-110412381D01*
X131571905Y-110507619D02*
X131619524Y-110460000D01*
X131714762Y-110412381D01*
X131952858Y-110412381D01*
X132048096Y-110460000D01*
X132095715Y-110507619D01*
X132143334Y-110602857D01*
X132143334Y-110698095D01*
X132095715Y-110840952D01*
X131524286Y-111412381D01*
X132143334Y-111412381D01*
X129476667Y-118984762D02*
X129619524Y-119032381D01*
X129857620Y-119032381D01*
X129952858Y-118984762D01*
X130000477Y-118937143D01*
X130048096Y-118841905D01*
X130048096Y-118746667D01*
X130000477Y-118651429D01*
X129952858Y-118603810D01*
X129857620Y-118556190D01*
X129667143Y-118508571D01*
X129571905Y-118460952D01*
X129524286Y-118413333D01*
X129476667Y-118318095D01*
X129476667Y-118222857D01*
X129524286Y-118127619D01*
X129571905Y-118080000D01*
X129667143Y-118032381D01*
X129905239Y-118032381D01*
X130048096Y-118080000D01*
X130381429Y-118032381D02*
X130619524Y-119032381D01*
X130810001Y-118318095D01*
X131000477Y-119032381D01*
X131238572Y-118032381D01*
X131524286Y-118032381D02*
X132143334Y-118032381D01*
X131810000Y-118413333D01*
X131952858Y-118413333D01*
X132048096Y-118460952D01*
X132095715Y-118508571D01*
X132143334Y-118603810D01*
X132143334Y-118841905D01*
X132095715Y-118937143D01*
X132048096Y-118984762D01*
X131952858Y-119032381D01*
X131667143Y-119032381D01*
X131571905Y-118984762D01*
X131524286Y-118937143D01*
X139573095Y-122642381D02*
X139573095Y-123451905D01*
X139620714Y-123547143D01*
X139668333Y-123594762D01*
X139763571Y-123642381D01*
X139954048Y-123642381D01*
X140049286Y-123594762D01*
X140096905Y-123547143D01*
X140144524Y-123451905D01*
X140144524Y-122642381D01*
X141144524Y-123642381D02*
X140573095Y-123642381D01*
X140858809Y-123642381D02*
X140858809Y-122642381D01*
X140763571Y-122785238D01*
X140668333Y-122880476D01*
X140573095Y-122928095D01*
X154813095Y-101052381D02*
X154813095Y-101861905D01*
X154860714Y-101957143D01*
X154908333Y-102004762D01*
X155003571Y-102052381D01*
X155194048Y-102052381D01*
X155289286Y-102004762D01*
X155336905Y-101957143D01*
X155384524Y-101861905D01*
X155384524Y-101052381D01*
X155813095Y-101147619D02*
X155860714Y-101100000D01*
X155955952Y-101052381D01*
X156194048Y-101052381D01*
X156289286Y-101100000D01*
X156336905Y-101147619D01*
X156384524Y-101242857D01*
X156384524Y-101338095D01*
X156336905Y-101480952D01*
X155765476Y-102052381D01*
X156384524Y-102052381D01*
X154178095Y-125182381D02*
X154178095Y-125991905D01*
X154225714Y-126087143D01*
X154273333Y-126134762D01*
X154368571Y-126182381D01*
X154559048Y-126182381D01*
X154654286Y-126134762D01*
X154701905Y-126087143D01*
X154749524Y-125991905D01*
X154749524Y-125182381D01*
X155130476Y-125182381D02*
X155749524Y-125182381D01*
X155416190Y-125563333D01*
X155559048Y-125563333D01*
X155654286Y-125610952D01*
X155701905Y-125658571D01*
X155749524Y-125753810D01*
X155749524Y-125991905D01*
X155701905Y-126087143D01*
X155654286Y-126134762D01*
X155559048Y-126182381D01*
X155273333Y-126182381D01*
X155178095Y-126134762D01*
X155130476Y-126087143D01*
X151090476Y-101052381D02*
X151423809Y-102052381D01*
X151757143Y-101052381D01*
X152661905Y-102052381D02*
X152328571Y-101576190D01*
X152090476Y-102052381D02*
X152090476Y-101052381D01*
X152471429Y-101052381D01*
X152566667Y-101100000D01*
X152614286Y-101147619D01*
X152661905Y-101242857D01*
X152661905Y-101385714D01*
X152614286Y-101480952D01*
X152566667Y-101528571D01*
X152471429Y-101576190D01*
X152090476Y-101576190D01*
X153614286Y-102052381D02*
X153042857Y-102052381D01*
X153328571Y-102052381D02*
X153328571Y-101052381D01*
X153233333Y-101195238D01*
X153138095Y-101290476D01*
X153042857Y-101338095D01*
X112966667Y-142692381D02*
X112633333Y-142216190D01*
X112395238Y-142692381D02*
X112395238Y-141692381D01*
X112776191Y-141692381D01*
X112871429Y-141740000D01*
X112919048Y-141787619D01*
X112966667Y-141882857D01*
X112966667Y-142025714D01*
X112919048Y-142120952D01*
X112871429Y-142168571D01*
X112776191Y-142216190D01*
X112395238Y-142216190D01*
X113395238Y-142168571D02*
X113728572Y-142168571D01*
X113871429Y-142692381D02*
X113395238Y-142692381D01*
X113395238Y-141692381D01*
X113871429Y-141692381D01*
X114633334Y-142168571D02*
X114300000Y-142168571D01*
X114300000Y-142692381D02*
X114300000Y-141692381D01*
X114776191Y-141692381D01*
X115300000Y-141692381D02*
X115300000Y-141930476D01*
X115061905Y-141835238D02*
X115300000Y-141930476D01*
X115538096Y-141835238D01*
X115157143Y-142120952D02*
X115300000Y-141930476D01*
X115442858Y-142120952D01*
X116061905Y-141692381D02*
X116061905Y-141930476D01*
X115823810Y-141835238D02*
X116061905Y-141930476D01*
X116300001Y-141835238D01*
X115919048Y-142120952D02*
X116061905Y-141930476D01*
X116204763Y-142120952D01*
X191706667Y-91892381D02*
X191373333Y-91416190D01*
X191135238Y-91892381D02*
X191135238Y-90892381D01*
X191516191Y-90892381D01*
X191611429Y-90940000D01*
X191659048Y-90987619D01*
X191706667Y-91082857D01*
X191706667Y-91225714D01*
X191659048Y-91320952D01*
X191611429Y-91368571D01*
X191516191Y-91416190D01*
X191135238Y-91416190D01*
X192135238Y-91368571D02*
X192468572Y-91368571D01*
X192611429Y-91892381D02*
X192135238Y-91892381D01*
X192135238Y-90892381D01*
X192611429Y-90892381D01*
X193373334Y-91368571D02*
X193040000Y-91368571D01*
X193040000Y-91892381D02*
X193040000Y-90892381D01*
X193516191Y-90892381D01*
X194040000Y-90892381D02*
X194040000Y-91130476D01*
X193801905Y-91035238D02*
X194040000Y-91130476D01*
X194278096Y-91035238D01*
X193897143Y-91320952D02*
X194040000Y-91130476D01*
X194182858Y-91320952D01*
X194801905Y-90892381D02*
X194801905Y-91130476D01*
X194563810Y-91035238D02*
X194801905Y-91130476D01*
X195040001Y-91035238D01*
X194659048Y-91320952D02*
X194801905Y-91130476D01*
X194944763Y-91320952D01*
M02*
